<svg width="51" height="50" xmlns="http://www.w3.org/2000/svg" xmlns:xlink="http://www.w3.org/1999/xlink"><defs><path id="a" d="M.007 0h50v50h-50z"/></defs><g fill="none" fill-rule="evenodd"><mask id="b" fill="#fff"><use xlink:href="#a"/></mask><path d="M47.257 31.24v-4.167h2.75V0h-50v19.218l2.024-2.187-.524 7.24h-1.5V50h50V35.37c-.076.044-2.67.063-2.75.102V31.241z" fill="#006FCF" mask="url(#b)"/><path d="M43.861 24.27h3.796v-8.787h-4.116v1.229l-.784-1.23h-3.584v1.59l-.7-1.59H32.7c-.253 0-.503.018-.746.05a4.821 4.821 0 0 0-.709.152 4.193 4.193 0 0 0-1.012.447v-.648H11.388l-.505 1.473-.505-1.473H5.883v1.588l-.698-1.589H1.608L0 19.253v5.017h2.516l.49-1.27h.857l.488 1.27h19.662v-1.069l.808 1.07h5.412v-.603a3.948 3.948 0 0 0 .943.405c.223.064.448.111.67.143.26.037.517.054.761.054h3.198l.49-1.27h.857l.488 1.27h5.514v-1.095l.707 1.095zm6.16 11.095v-8.292H19.36l-.8 1.136-.808-1.136H8.854v8.788h8.863l.791-1.161.817 1.161h5.563v-1.936h-.168c.733 0 1.405-.139 1.995-.368v2.304h4.023v-1.07l.81 1.07H48.11c.724 0 1.372-.176 1.91-.496z" fill="#FFF"/><path d="M48.17 33.218h-3.005v1.195h2.929c1.27 0 2.029-.765 2.029-1.851 0-1.07-.7-1.692-1.827-1.692h-1.338c-.353 0-.606-.227-.606-.581 0-.345.253-.572.606-.572h2.525l.53-1.195h-2.98c-1.27 0-2.028.774-2.028 1.826 0 1.086.716 1.709 1.827 1.709h1.338c.354 0 .606.227.606.589 0 .345-.252.572-.606.572zm-5.48 0h-3.004v1.195h2.928c1.272 0 2.03-.765 2.03-1.851 0-1.07-.7-1.692-1.828-1.692h-1.337c-.354 0-.607-.227-.607-.581 0-.345.253-.572.607-.572h2.525l.529-1.195h-2.98c-1.27 0-2.028.774-2.028 1.826 0 1.086.716 1.709 1.828 1.709h1.338c.353 0 .606.227.606.589 0 .345-.253.572-.606.572zm-3.88-3.501v-1.195h-4.646v5.89h4.647v-1.194h-3.3V32.04h3.223v-1.17H35.51v-1.153h3.3zm-7.618 0c.514 0 .784.312.784.698 0 .379-.27.699-.784.699H29.51v-1.397h1.682zm-1.682 2.55h.68L32 34.413h1.692l-1.952-2.196c1-.186 1.59-.893 1.59-1.811 0-1.12-.773-1.884-2.02-1.884h-3.147v5.89h1.347v-2.145zm-3.577-1.776c0 .42-.27.757-.784.757h-1.725v-1.531h1.725c.514 0 .784.345.784.774zm-3.856-1.97v5.892h1.347v-1.97h1.793c1.279 0 2.07-.832 2.07-1.96 0-1.161-.774-1.961-2.02-1.961h-3.19zm-2.07 5.892h1.692l-2.357-2.97 2.34-2.921H20.04l-1.482 1.919-1.481-1.92h-1.692l2.357 2.946-2.35 2.946h1.643l1.48-1.944 1.49 1.944zm-4.983-4.696v-1.195h-4.646v5.89h4.646v-1.194h-3.3V32.04h3.224v-1.17h-3.223v-1.153h3.299zM42.16 19.22l2.307 3.603h1.667V16.93h-1.339v3.889l-.362-.573-2.138-3.316h-1.742v5.892h1.338v-4.024l.27.42zm-5.892-.151l.447-1.238.454 1.238.54 1.355H35.73l.538-1.355zm2.4 3.754h1.49L37.64 16.93h-1.792l-2.526 5.892h1.457l.505-1.271h2.878l.506 1.27zm-6.22 0h.05l.556-1.204h-.388c-.993 0-1.573-.623-1.573-1.692v-.101c0-.951.53-1.667 1.556-1.667h1.49V16.93H32.54c-1.793 0-2.795 1.22-2.795 2.887v.118c0 1.708 1.002 2.87 2.702 2.887zm-5.009 0h1.347V16.93H27.44V22.823zm-2.97-4.697c.512 0 .782.31.782.698 0 .379-.27.699-.783.699h-1.683v-1.397h1.683zm-1.684 2.55h.682l1.81 2.147h1.691l-1.953-2.197c1.001-.185 1.591-.892 1.591-1.81 0-1.12-.774-1.885-2.02-1.885h-3.148v5.892h1.347v-2.146zm-2.424-2.55V16.93h-4.647v5.892h4.647v-1.196h-3.3v-1.178h3.224v-1.17h-3.224v-1.153h3.3zm-10.076 4.697h1.17l1.701-4.773v4.773h1.33V16.93h-2.222l-1.38 3.98-1.38-3.98h-2.24v5.892h1.33V18.05l1.691 4.773zM2.98 19.069l.447-1.238.454 1.238.54 1.355H2.44l.538-1.355zm2.4 3.754h1.49L4.35 16.93H2.558L.034 22.823H1.49l.504-1.271h2.88l.504 1.27z" fill="#006FCF"/></g></svg>