<svg width="218" height="150" viewBox="0 0 218 150" xmlns="http://www.w3.org/2000/svg"><title>dinersclub</title><g fill="none" fill-rule="evenodd"><path fill="#231815" d="M47.705 107.346v-.3l-.015-.283-.036-.243-.054-.23-.075-.211-.09-.175-.107-.196-.141-.159-.163-.16-.197-.138-.216-.158-.252-.138-.266-.143-.326-.144-.734-.297v-.859l1.488-.481 1.472-.49.75-.266.771-.28.79-.318.806-.333h.051l.057.014.033.022.057.053.034.05.02.089.02.087v3.065l.98-.67.952-.63.468-.304.461-.28.487-.264.461-.246.492-.212.48-.195.501-.174.519-.145.525-.122.534-.07.537-.054.575-.014h.36l.336.014.346.055.3.052.308.07.283.09.287.088.253.122.25.125.235.141.231.138.198.159.198.178.197.194.157.191.164.215.163.226.143.23.128.226.108.247.106.266.1.264.075.264.09.284.057.297.067.283.073.618.058.63.016.655v11.654l.016.265.034.225.058.214.073.174.084.143.13.123.125.088.145.089.157.053.182.052.196.035.199.019.427.016h1.307v1.178l-1.217-.018-1.2-.032-1.235-.018-1.218-.02h-1.257l-1.234.038-1.24.017-1.252.033v-1.178h1.292l.427-.016.198-.02.18-.034.157-.052.165-.053.14-.089.124-.088.107-.123.074-.143.073-.174.056-.214.034-.225.017-.265v-11.694l-.017-.474-.073-.437-.09-.407-.124-.372-.074-.173-.083-.176-.091-.159-.09-.16-.125-.139-.113-.14-.122-.125-.125-.123-.14-.122-.164-.11-.306-.19-.36-.175-.372-.126-.395-.103-.434-.074-.462-.053-.468-.016-.289.016-.303.036-.322.072-.343.087-.338.089-.34.123-.36.144-.361.155-.733.335-.699.354-.66.384-.607.387v13.366l.015.265.034.225.057.214.068.174.106.143.114.123.14.088.142.089.163.053.181.052.18.035.215.019.427.016h1.292v1.178l-1.202-.018-1.217-.032-1.218-.018-1.238-.02h-1.236l-1.251.038-1.242.017-1.233.033v-1.178h1.29l.43-.016.18-.02.19-.034.164-.052.164-.053.123-.089.126-.088.106-.123.09-.143.073-.174.055-.214.035-.225v-12.221zm23.566 2.165l-.035.18-.016.19-.022.53.022.721.051 1.002.033.407.039.404.068.386.074.374.09.386.106.368.109.354.146.37.125.332.164.336.157.336.179.313.175.303.22.297.198.283.215.283.23.261.254.247.231.23.27.21.265.212.27.194.289.162.287.154.3.14.309.124.306.106.32.088.32.074.328.051.338.034h.807l.469-.054.444-.069.429-.108.416-.122.406-.158.4-.173.395-.197.372-.21.378-.23.362-.264.355-.263.343-.267.338-.297.321-.301.321-.296.165.14.164.156.157.16.163.158-.411.53-.411.493-.435.476-.446.473-.444.439-.492.425-.48.405-.518.35-.541.336-.27.16-.265.14-.287.141-.289.122-.304.106-.303.108-.305.102-.305.07-.32.072-.327.073-.322.033-.338.034-.34.02-.358.014-.667-.034-.642-.052-.592-.088-.576-.142-.534-.158-.52-.191-.485-.23-.445-.245-.434-.266-.395-.3-.355-.316-.361-.334-.304-.355-.305-.369-.27-.386-.247-.388-.238-.386-.215-.408-.18-.402-.174-.425-.146-.402-.142-.425-.123-.402-.096-.387-.085-.407-.074-.386-.05-.372-.056-.35-.052-.67-.016-.581.016-.81.034-.775.09-.757.108-.706.14-.67.18-.631.198-.617.214-.562.255-.548.265-.51.27-.493.304-.457.322-.423.32-.388.361-.387.34-.334.377-.317.377-.3.378-.265.378-.246.394-.213.373-.208.395-.178.376-.137.379-.142.37-.105.38-.109.36-.07.362-.052.337-.055.322-.015h.664l.34.015.36.038.338.05.355.056.343.07.34.088.343.105.339.126.32.121.339.14.31.156.306.18.302.196.306.19.27.212.265.23.272.246.247.246.236.264.215.3.192.28.203.319.18.333.14.333.141.354.13.37.092.386.089.405.05.405.034.424.016.457v.406l-.016.194-.017.21-.107.073-.106.068-.107.073-.107.05H71.27zm8.152-1.442h.203l.175-.018.157-.033.147-.037.124-.052.09-.072.09-.07.073-.071.068-.09.039-.086.068-.194.04-.194v-.208l-.017-.424-.057-.424-.073-.388-.106-.388-.159-.366-.18-.336-.198-.32-.248-.296-.27-.267-.289-.245-.162-.106-.174-.103-.164-.089-.198-.09-.18-.07-.196-.07-.199-.053-.214-.036-.214-.034-.231-.034-.238-.022h-.501l-.248.022-.248.034-.236.034-.248.055-.236.07-.233.07-.213.087-.215.089-.214.105-.197.123-.204.122-.192.141-.179.145-.182.155-.18.176-.158.177-.162.174-.164.195-.141.214-.272.442-.23.451-.214.517-.182.523-.161.563-.11.602h8.013zm6.291 12.747h1.704l.427-.016.197-.02.18-.034.164-.052.159-.054.145-.088.124-.088.091-.123.084-.143.075-.173.054-.215.04-.225.017-.266v-12.695l-.017-.243-.072-.23-.073-.197-.125-.192-.146-.158-.14-.142-.181-.122-.199-.125-.196-.106-.197-.088-.395-.157-.356-.14-.304-.142v-.667l1.183-.512 1.056-.474.912-.442.758-.386.641-.319.484-.247.355-.139.13-.052h.2l.082.014.073.038.051.07.04.07.034.108.022.12v4.227h.106l.47-.704.264-.388.27-.37.305-.402.32-.391.34-.37.36-.368.373-.337.4-.317.412-.28.213-.141.215-.106.236-.105.233-.108.23-.069.237-.07.247-.052.253-.055.249-.014h.485l.215.036.23.033.215.069.238.071.214.106.213.123.197.141.181.159.158.175.164.196.123.208.107.249.074.246.056.282.016.298-.016.23-.023.21-.05.212-.074.212-.09.212-.09.192-.124.178-.14.158-.149.159-.162.139-.174.106-.197.103-.198.089-.214.055-.231.034-.238.017-.247-.017-.22-.034-.198-.055-.174-.072-.164-.083-.164-.088-.28-.194-.29-.212-.162-.088-.181-.07-.197-.07-.232-.055-.248-.034-.27-.015-.181.015-.197.034-.236.055-.249.103-.27.106-.282.16-.29.176-.285.21-.272.228-.246.283-.232.299-.106.176-.113.177-.09.175-.069.194-.072.211-.075.211-.032.213-.035.225-.018.247-.017.249v10.617l.017.266.018.225.05.215.074.173.09.143.102.123.13.088.146.088.14.054.181.052.176.035.203.019.41.016h3.046v1.178l-1.794-.032-1.63-.019-1.527-.037h-2.897l-1.421.037-1.358.019-1.292.032v-1.159zm17.726-5.104l.123.56.163.531.176.527.22.509.247.48.27.452.158.213.163.214.163.191.183.196.173.193.197.175.197.16.2.157.212.14.232.142.236.123.232.106.253.104.267.09.268.072.272.069.288.053.287.036.3.016h.31l.501-.016.445-.057.412-.084.377-.106.34-.158.31-.178.264-.195.23-.207.22-.228.16-.27.14-.263.127-.261.092-.303.051-.28.04-.297.017-.302v-.245l-.016-.23-.04-.23-.052-.21-.073-.213-.073-.19-.073-.198-.108-.192-.108-.175-.123-.158-.124-.16-.124-.159-.305-.296-.344-.268-.371-.262-.4-.227-.413-.232-.426-.23-.898-.418-.948-.425-.468-.212-.467-.23-.445-.248-.446-.243-.452-.283-.41-.278-.394-.318-.362-.337-.174-.194-.165-.175-.163-.195-.14-.208-.143-.211-.13-.23-.106-.23-.107-.245-.106-.247-.091-.266-.072-.28-.052-.283-.056-.301-.034-.296-.017-.336v-.562l.017-.247.034-.245.04-.246.05-.247.074-.244.09-.27.088-.247.11-.244.123-.248.145-.231.143-.243.157-.23.18-.227.198-.23.214-.21.215-.213.236-.194.27-.189.265-.18.273-.174.303-.162.322-.156.327-.121.353-.127.361-.105.38-.105.387-.072.434-.068.43-.034.445-.036h.467l.57.014.615.056.641.104.667.141.682.176.698.23.34.122.343.143.337.157.34.157.089 1.163.074 1.148.084 1.14.08 1.163h-1.061l-.09-.528-.146-.474-.14-.475-.175-.425-.222-.401-.23-.372-.14-.163-.131-.17-.14-.145-.163-.158-.159-.14-.164-.124-.179-.122-.18-.105-.176-.106-.197-.107-.198-.087-.213-.07-.22-.072-.232-.07-.484-.086-.502-.052-.535-.023-.34.023-.343.033-.322.053-.322.087-.32.107-.294.122-.282.158-.253.178-.246.192-.216.23-.186.245-.158.266-.124.3-.108.3-.055.336-.018.35v.245l.033.228.04.233.051.209.057.21.09.196.09.191.102.177.112.174.124.178.148.159.14.157.322.286.354.278.4.244.412.249.446.228.452.212.968.424 1 .423.985.442.502.243.467.248.463.263.451.284.412.316.394.332.18.177.18.193.16.196.163.193.14.21.147.21.125.233.106.244.107.244.09.249.072.266.069.279.057.303.032.298.018.32.017.312-.017.284-.018.281-.032.282-.057.28-.05.281-.09.267-.091.283-.107.26-.124.265-.147.268-.157.26-.165.248-.197.246-.196.246-.215.23-.253.21-.248.23-.254.192-.283.195-.305.194-.321.175-.325.158-.361.14-.357.143-.378.126-.41.102-.412.087-.434.088-.462.054-.469.053-.478.019-.503.015-.343-.015-.356-.02-.36-.034-.378-.057-.357-.05-.375-.07-.355-.087-.362-.104-.376-.107-.362-.106-.338-.14-.355-.124-.345-.161-.32-.137-.328-.16-.298-.177-.13-1.285-.123-1.304-.125-1.304-.141-1.302.214-.05.214-.053.198-.071.19-.05zm54.746-17.099h-1.151l-.089-.476-.102-.475-.125-.44-.145-.44-.147-.406-.176-.403-.195-.37-.205-.368-.207-.353-.238-.32-.247-.316-.254-.3-.288-.28-.282-.246-.31-.264-.304-.227-.322-.213-.34-.197-.36-.194-.354-.17-.377-.146-.378-.142-.394-.138-.412-.108-.412-.103-.434-.068-.422-.09-.453-.055-.449-.034-.463-.032-.485-.02-.469-.017-.5.017-.52.036-.519.05-.535.072-.54.105-.554.125-.534.138-.559.177-.559.193-.535.23-.541.244-.534.287-.536.313-.52.336-.5.37-.487.407-.485.436-.45.46-.444.511-.413.527-.394.565-.38.598-.337.65-.321.669-.147.356-.14.366-.124.368-.13.372-.125.389-.09.402-.107.409-.091.422-.067.437-.073.445-.056.436-.05.474-.04.46-.017.49-.017.496-.018.494.018.847.074.843.089.813.124.806.158.774.198.76.236.736.248.724.29.704.32.69.36.65.355.633.394.615.435.584.445.56.464.53.489.508.5.494.538.441.534.422.56.404.573.355.594.335.59.295.627.267.608.247.643.192.631.16.643.14.666.086.66.057.664.014h.413l.428-.035.413-.036.41-.068.394-.074.395-.083.395-.125.378-.124.371-.142.384-.159.356-.177.336-.19.345-.213.339-.208.32-.25.306-.246.303-.264.288-.261.271-.302.27-.302.248-.315.254-.316.214-.352.214-.352.213-.353.182-.386.175-.387.146-.39.147-.42.124-.404.122-.442.091-.44.272.07.25.07.27.069.264.053-.265 1.658-.27 1.654-.25 1.653-.27 1.64-.396.228-.467.21-.535.232-.576.208-.624.214-.665.192-.694.193-.717.178-.721.159-.733.138-.74.141-.714.107-.694.084-.665.073-.642.037-.598.015-.981-.034-.992-.052-.948-.088-.913-.142-.89-.174-.879-.214-.863-.248-.806-.276-.413-.159-.395-.161-.376-.174-.38-.178-.375-.191-.356-.195-.362-.197-.36-.228-.338-.207-.339-.232-.322-.245-.325-.244-.3-.248-.31-.268-.3-.262-.291-.28-.283-.283-.27-.28-.27-.304-.248-.296-.255-.32-.248-.313-.237-.337-.214-.335-.214-.333-.213-.353-.396-.704-.353-.74-.323-.759-.27-.789-.248-.81-.221-.844-.18-.862-.125-.883-.105-.898-.052-.916-.024-.949v-.443l.024-.42.034-.424.034-.422.056-.404.068-.425.073-.403.091-.405.09-.406.106-.388.131-.384.125-.39.138-.37.165-.39.142-.365.179-.356.174-.365.181-.355.411-.686.453-.67.467-.632.5-.616.537-.598.552-.584.593-.528.626-.526.647-.475.66-.459.705-.44.7-.39.731-.365.751-.336.755-.32.79-.263.783-.249.811-.191.807-.177.822-.122.848-.104.838-.054.842-.02.697.02.682.036.7.07.682.085.693.11.682.122.684.137.664.161.683.176.676.193 1.347.406 1.324.439 1.342.445.113 1.617.108 1.621.124 1.618.09 1.602zm1.668 22.203h1.324l.43-.016.197-.02.182-.034.18-.052.138-.054.143-.088.13-.088.107-.123.09-.143.073-.173.05-.215.018-.225.017-.266V93.63l-.034-.458-.035-.402-.072-.336-.074-.3-.084-.267-.129-.21-.148-.192-.14-.16-.176-.123-.203-.124-.23-.084-.233-.09-.27-.088-.608-.174V89.9l.681-.23.7-.248.666-.246.642-.264.609-.264.552-.248.486-.228.394-.229.36-.176.288-.159.231-.123.068-.015.08-.017.09.017.066.031.073.056.053.088.032.088.023.104.018.122v31.36l.015.266.041.225.052.215.071.173.108.143.107.123.124.088.164.088.159.054.179.052.18.035.198.019.445.016h1.24v1.178l-1.185-.018-1.2-.033-1.2-.018-1.24-.019h-1.252l-1.235.037-1.258.019-1.268.032v-1.159zm29.53-1.301l.016.138.018.124.023.107.05.107.04.084.069.072.072.05.073.038.09.05.091.019.23.037.255.018.264.015.45-.015.47-.018.461-.017h.463v.95l-.39.053-.434.052-.93.161-.987.188-.986.215-.946.21-.823.211-.667.176-.467.14-.05-.034-.057-.034-.068-.033-.056-.039v-3.662l-1.003.795-.486.384-.484.354-.48.336-.47.3-.483.298-.468.261-.478.248-.503.21-.502.18-.525.156-.535.123-.558.089-.569.053-.592.015-.467-.015-.462-.071-.468-.088-.452-.142-.214-.088-.214-.086-.214-.105-.216-.11-.196-.121-.197-.142-.18-.138-.197-.159-.163-.176-.176-.176-.164-.194-.14-.194-.146-.228-.126-.212-.124-.244-.107-.246-.106-.269-.09-.278-.074-.284-.057-.3-.05-.295-.033-.336-.018-.337-.022-.352v-12.008l-.035-.21-.033-.212-.04-.212-.09-.192-.09-.177-.123-.178-.141-.176-.199-.157-.218-.139-.267-.122-.303-.108-.357-.086-.398-.073-.464-.052v-.862l.718-.022.822-.051 1.832-.106 1.63-.086.947-.053.162.016.075.02.051.035.054.035.034.05.035.056.023.07.05.176.018.23v12.905l.018.372.038.402.067.425.092.437.122.443.08.226.083.212.09.214.126.209.13.193.14.194.147.178.174.176.18.173.198.142.215.145.254.123.247.1.287.09.288.072.321.05.337.039.363.016.303-.016.306-.04.32-.066.326-.088.34-.106.337-.142.362-.157.355-.178.36-.194.355-.207.386-.233.354-.227.378-.262.36-.266.733-.585v-12.164l-.017-.072-.023-.089-.016-.067-.057-.087-.106-.14-.158-.142-.198-.125-.214-.142-.254-.101-.266-.128-.608-.21-.648-.193-1.307-.353v-.812l1.488-.103 1.325-.107 2.17-.21 1.466-.141.467-.055.27-.016.124.016.091.037.056.07.052.104.016.105.017.143v17.011zm9.156-2.627l.021.333.069.356.089.365.13.393.175.386.215.388.236.367.288.355.163.175.159.173.157.162.197.159.186.14.192.14.215.122.219.122.214.108.231.089.254.088.248.07.253.052.266.038.288.017.287.016.452-.016.427-.035.43-.072.393-.085.395-.125.374-.122.36-.178.337-.175.327-.194.305-.23.288-.227.281-.265.271-.263.254-.284.23-.299.214-.317.198-.317.196-.337.182-.331.159-.352.146-.37.14-.37.13-.371.108-.37.084-.385.09-.387.057-.39.073-.37.033-.385.04-.389.016-.385v-.39l-.015-.44-.019-.457-.055-.44-.073-.44-.091-.423-.124-.421-.124-.422-.146-.409-.16-.386-.18-.385-.196-.373-.198-.368-.214-.353-.236-.336-.248-.333-.249-.315-.272-.284-.268-.297-.289-.266-.303-.248-.281-.228-.329-.228-.304-.196-.324-.174-.319-.155-.321-.162-.343-.105-.322-.106-.345-.086-.338-.056-.337-.036-.345-.016-.305.016-.32.036-.305.056-.288.086-.286.089-.283.122-.293.122-.27.16-.266.14-.265.177-.524.353-.485.386-.484.389v10.984-12.305l.722-.58.394-.284.394-.281.389-.282.418-.264.43-.264.427-.247.445-.213.45-.209.452-.177.462-.156.468-.124.463-.09.49-.053.462-.016h.502l.463.053.484.05.451.089.452.124.428.123.411.158.395.178.394.212.379.21.355.243.339.248.325.286.322.296.304.302.27.318.266.329.253.354.25.371.218.373.193.382.196.407.164.403.164.423.124.425.124.42.107.443.072.437.074.461.034.458.04.459v1.002l-.04.564-.073.543-.09.546-.108.547-.14.545-.165.53-.173.528-.203.506-.233.518-.252.49-.265.476-.288.473-.322.46-.326.437-.355.425-.361.401-.39.409-.41.368-.435.337-.429.333-.468.3-.479.283-.485.26-.525.231-.517.195-.537.178-.557.154-.574.106-.588.089-.59.053-.61.015-.625-.015-.575-.037-.56-.049-.516-.073-.487-.105-.445-.089-.435-.122-.388-.126-.379-.12-.337-.125-.631-.265-.537-.245-.484-.213-.343.249-.357.26-.343.267-.338.265-.233-.123-.253-.124-.23-.123-.253-.121.146-1.005.123-1.004.131-.989.083-1.002.075-1.005.05-1.002.023-1.022.017-1.037V93.63l-.04-.458-.034-.402-.068-.336-.073-.3-.09-.267-.129-.21-.141-.192-.142-.16-.18-.123-.198-.124-.23-.084-.231-.09-.271-.088-.61-.174V89.9l.677-.23.7-.248.665-.247.642-.263.615-.264.551-.247.486-.23.396-.228.354-.176.288-.159.231-.123.073-.015.074-.017.09.017.09.032.05.056.058.087.033.087.017.106.017.245v16.5zM7.83 131.75h-.089l-.932.02-1.003.014-1.026.036-.963.02-.971-.02-.986-.036-.931-.014-.822-.02H0v.95h.79l.32.034.148.039.14.016.141.053.13.053.108.07.107.088.09.105.074.124.068.14.033.178.04.173.016.213v12.888l-.016.211-.04.193-.033.157-.068.16-.075.125-.089.089-.107.087-.108.07-.13.069-.14.035-.14.038-.148.033-.32.018-.345.019H0v.95h.108l.804-.018.932-.035.985-.036.954-.017.963.017 1.027.036 1.02.035.949.018-.056-.107.056.107h.112v-.95h-.469l-.328-.02-.32-.017-.163-.033-.142-.038-.123-.035-.126-.07-.127-.07-.092-.086-.085-.089-.088-.124-.058-.161-.05-.157-.017-.193-.021-.211v-12.888l.021-.213.017-.173.05-.178.058-.14.088-.124.085-.105.092-.088.127-.07.126-.053.123-.053.142-.016.163-.04.32-.033h.797v-.95zm21.018 0h-.069l-.788.02-.733.014-.717.036-.77.02-.875-.02-.879-.036-.88-.014-.88-.02h-.107v.95h.666l.304.02.157.014.166.039.179.05.157.072.181.07.164.104.14.125.142.159.145.175.108.213.09.23.073.278.051.3.023.355v9.049l-2.764-3.048-2.743-3.045-2.758-3.027-2.762-3.049h-.61l-.57.018-.574.018-.553.02-.704-.02-.733-.036-.715-.014-.717-.02h-.106v.95h.624l.215.034.198.039.18.07.198.085.175.089.162.108.163.138.143.141.144.16.107.177.109.176.069.21.055.213.033.23.023.226v10.721l-.023.337-.033.318-.055.277-.052.286-.09.244-.09.21-.108.211-.141.178-.146.16-.18.12-.2.126-.207.086-.253.053-.27.036-.289.019h-.461v.95h.106l.84-.018.863-.035.856-.036.848-.017.803.017.809.036.805.035.806.018h.108v-.95h-.542l-.315-.02-.31-.017-.266-.051-.236-.055-.215-.088-.174-.088-.166-.121-.127-.16-.108-.16-.084-.21-.074-.21-.05-.263-.062-.286-.012-.316-.021-.353-.019-.37v-9.856l3.175 3.465 3.19 3.49 3.17 3.466 3.174 3.49h.248l.268.016h.256l.266.016h.13v-.033l-.02-.039v-.051l-.096-.583-.033-.613-.016-.634-.017-.633v-11.2l.017-.51.05-.458.055-.386.074-.335.108-.28.107-.248.14-.194.148-.175.141-.127.09-.103.18-.072.175-.05.201-.04.177-.013.394-.02h.486v-.95zM42.4 149.128l-.88-.017-1.036-.036-1.11-.035-1.061-.019-1.167.019-1.144.035-1.055.036-.861.017h-.108v-.95h.576l.478-.019.411-.036.164-.033.165-.037.14-.069.124-.088.114-.109.105-.12.074-.16.068-.175.055-.227.035-.248.017-.302.016-.333v-13.029h-4.318l-.281.018-.254.036-.214.035-.181.052-.163.071-.124.089-.107.106-.092.122-.09.158-.067.159-.072.21-.107.478-.142.613v.055l-.022.017v.016h-.971v-.033l.022-.038v-.051l.068-.528.091-.508.074-.529.073-.53.067-.51.038-.512.037-.527v-.632h.807v.069l.015.02.034.106.039.085.057.086.05.071.058.053.065.05.148.092.174.037.203.034c.192.008.383.017.575.017h12.899l.272-.017h.214l.214-.034.18-.057.067-.032.074-.04.073-.05.05-.071.04-.067.032-.089.02-.103.016-.11v-.087l.021-.035.018.016h.051l.034.02.186.016.175.037.18.016.164.036v.069l-.017.037-.073.494-.074.49-.057.511-.066.494-.018.491-.016.496v1.073h-.039l-.018.016h-.017l-.236.087-.214.071-.233.09-.214.07v-.14l-.033-.355-.056-.386-.04-.193-.034-.193-.069-.177-.071-.174-.109-.162-.105-.156-.148-.123-.157-.124-.181-.088-.215-.07-.254-.036-.281-.017h-3.997v12.977l.018.335.033.28.034.246.074.227.072.197.09.159.108.14.124.104.123.089.147.07.157.052.181.038.18.032.198.02.429.018h.592v.95H42.4zm18.618-.106l.054.106-1.413-.018-1.722-.035-1.825-.036-1.778-.017-1.791.017-1.843.036-1.703.035-1.327.018h-.11v-.95h.466l.322-.018.32-.02.164-.033.148-.037.123-.036.123-.05.108-.088.108-.073.09-.103.089-.124.057-.14.05-.178.017-.192.017-.212v-12.888l-.017-.213-.016-.173-.05-.178-.058-.14-.09-.125-.09-.104-.107-.071-.108-.087-.123-.053-.123-.036-.148-.033-.163-.039-.321-.033h-.789v-.951h.11l1.327.019 1.577.015 1.681.036 1.65.02 1.653-.02 1.697-.036 1.636-.015 1.432-.019h.108v.107l-.017.28-.017.317v1.319l.017.653.017.617.034.564v.069l.016.02h-.035l-.015.015h-.017l-.017.02-.22.054-.232.048-.213.054-.22.053v-.088l-.017-.035-.05-.583-.04-.26-.05-.266-.074-.228-.084-.23-.114-.211-.14-.193-.163-.177-.193-.159-.236-.138-.272-.108-.303-.088-.356-.072-.395-.051-.468-.016H53.19v6.231h2.865l.268-.017.215-.017.215-.053.18-.056.159-.068.145-.107.125-.104.107-.122.092-.123.089-.157.057-.178.067-.178.09-.422.072-.457v-.106h.97v.122l-.04.704-.033.723-.017.72v1.428l.017.688.034.702.04.705v.089h-.04l-.018.016h-.033l-.231.036-.22.053-.213.037-.216.055v-.129l-.072-.526-.074-.458-.033-.214-.05-.188-.057-.178-.09-.158-.091-.142-.124-.122-.125-.105-.18-.09-.181-.051-.23-.054-.252-.036-.284-.017H53.19v5.631l.017.264.034.23.072.193.108.178.124.14.147.126.157.087.198.088.22.054.215.05.247.033.247.022.56.014h.591l1.054-.014.469-.022.427-.033.395-.05.36-.071.34-.107.304-.125.124-.07.146-.089.124-.088.124-.105.13-.121.107-.124.213-.282.182-.317.174-.37.164-.44.146-.494v-.017l.018-.015v-.04l.018-.013h.032l.04.013h.016l.215.055.197.05.197.055.198.033v.055l-.021.037v.017l-.232.986-.232.97-.197.983-.18.969-.017.02v.051l-.016.018h-.075zm8.715-8.961l.445-.016.411-.037.394-.055.378-.086.321-.105.305-.142.287-.159.124-.106.13-.087.102-.126.106-.123.114-.12.09-.14.073-.142.085-.157.123-.335.108-.388.074-.425.055-.472.017-.512-.017-.388-.055-.37-.074-.351-.108-.334-.141-.316-.157-.284-.187-.264-.23-.23-.232-.228-.27-.172-.281-.163-.328-.141-.339-.106-.36-.07-.38-.053-.394-.016-.443.016-.345.018-.281.036-.238.017v7.133h1.118zm10.432 9.067h-.004l-.614-.017-.61-.036-.602-.036-.632-.018-.569.018-.598.036-.62.017h-.648l-.699-.933-.684-.95-.664-.967-.66-.99-.625-1.003-.632-1.018-.608-1.025-.609-1.057h-1.472v5.498l.04.28.05.245.057.213.073.178.09.14.108.12.125.11.123.065.163.072.14.038.181.032.378.02.412.018h.552v.95H71l-1.078-.017-1.07-.036-1.094-.036-1.059-.018-.898.018-.894.036-.909.036-.937.017h-.106v-.95h.559l.338-.019.304-.051.141-.055.146-.055.124-.05.124-.071.107-.09.092-.083.09-.09.073-.124.056-.105.033-.142.034-.138v-12.961l-.034-.264-.049-.228-.058-.193-.095-.177-.085-.14-.106-.125-.108-.088-.13-.07-.124-.053-.142-.033-.14-.04-.286-.033h-.864v-.95h.106l.734.02.954.014 1.052.037 1.151.018 1.078-.018 1.003-.037.963-.014.987-.02h.57l.596.034.554.073.558.089.518.102.502.159.23.09.238.106.23.104.216.124.197.124.197.14.197.158.165.158.18.18.14.172.142.21.123.213.113.213.107.245.085.246.073.265.05.279.041.304.039.315v.314l-.023.424-.034.39-.09.37-.108.33-.14.337-.18.316-.18.3-.232.283-.236.264-.266.247-.287.228-.288.21-.322.195-.343.177-.338.176-.36.138 1.059 1.55 1.054 1.547 1.043 1.554 1.054 1.549.254.353.232.28.252.23.125.089.124.083.124.071.147.075.32.102.361.073.412.07h.052l.022.017h.017v.933h-.104zm18.2.352h-.518l-.25-.016-3.196-3.49-3.168-3.465-3.168-3.49-3.195-3.465v9.856l.021.37.017.353.033.316.04.286.056.264.068.21.09.21.107.16.146.158.142.121.18.09.21.087.236.055.27.05.304.02.34.018h.518v.95h-.106l-.807-.017-.806-.036-.806-.036-.807-.018-.84.018-.863.036-.84.036-.862.017h-.107v-.95h.469l.286-.019.265-.036.254-.053.214-.086.198-.126.18-.12.141-.16.147-.177.107-.211.085-.21.096-.245.05-.286.057-.278.033-.317.016-.337V134.57l-.033-.23-.074-.212-.072-.21-.107-.176-.108-.177-.14-.159-.147-.14-.157-.14-.165-.108-.18-.105-.174-.07-.205-.07-.197-.038-.19-.034h-.649v-.95h.107l.717.02.733.014.721.037.715.018.552-.018.559-.019.575-.033.603.015 2.762 3.03 2.763 3.046 2.739 3.045 2.764 3.048v-9.048l-.017-.356-.056-.3-.074-.28-.09-.228-.107-.212-.124-.176-.142-.159-.164-.125-.156-.104-.181-.09-.164-.052-.179-.05-.157-.04-.165-.013-.303-.02h-.667v-.95h.107l.902.02.874.014.863.037.873.018.774-.018.771-.037.773-.015.766-.02h.113v.951h-.485l-.377.02-.197.014-.198.038-.18.051-.158.071-.181.103-.146.129-.142.156-.123.212-.131.247-.089.28-.092.336-.05.386-.039.458-.017.511v11.832l.017.634.056.614.075.583v.069l.016.02v.033h-.091c-.078 0-.014 0-.287-.017m31.041-.353l-.863-.017-1.038-.036-1.115-.035-1.055-.019-1.162.019-1.15.035-1.053.036-.88.017h-.106v-.95h.592l.478-.019.4-.036.176-.033.163-.037.14-.069.13-.088.108-.109.085-.12.089-.16.074-.175.057-.227.032-.248.018-.302.022-.333v-13.029h-4.324l-.282.018-.254.036-.214.035-.179.052-.16.071-.129.089-.123.106-.093.122-.07.158-.068.159-.074.21-.123.478-.126.613-.022.017v.071h-.964v-.088l.017-.034.074-.51.084-.526.074-.529.072-.53.052-.51.05-.512.022-.527.019-.527v-.105h.788v.017l.017.016v.056l.04.106.05.085.04.086.048.071.076.053.068.05.146.092.179.037.193.034.434.017h13.062l.238-.017h.23l.214-.034.18-.057.069-.032.073-.04.056-.05.05-.071.058-.067.033-.089.023-.088.016-.125v-.122l.035.016h.056l.034.02.173.016.163.037.183.016.178.036v.054l-.015.015v.037l-.074.494-.073.49-.074.511-.05.494-.033.491-.023.496v1.073h-.035l-.016.016h-.017l-.214.087-.237.071-.214.09-.215.07v-.034l-.016-.036v-.07l-.017-.355-.057-.386-.034-.193-.056-.193-.057-.177-.083-.174-.091-.162-.107-.156-.146-.123-.158-.124-.199-.088-.212-.07-.238-.036-.286-.017h-3.993v12.977l.017.335.016.28.052.246.056.227.09.197.09.159.107.14.107.104.147.089.142.07.158.052.18.038.181.032.197.02.434.018h.569v.95h-.091zm12.99-.107l.055.107-.947-.018-1.027-.035-1.003-.036-.98-.017-.954.017-.986.036-.93.035-.806.018h-.107v-.95h.445l.343-.019.322-.019.142-.033.147-.037.14-.036.123-.05.108-.089.107-.072.09-.102.073-.126.075-.139.038-.179.033-.192v-13.312l-.033-.173-.038-.178-.075-.14-.073-.125-.09-.104-.107-.088-.108-.07-.124-.052-.14-.036-.146-.034-.142-.04-.322-.032h-.788v-.951h.107l.824.02.93.014.986.037.953.019.981-.02 1.026-.036 1.003-.015.93-.019h.109v.951h-.791l-.319.032-.164.04-.14.034-.126.036-.129.052-.124.07-.09.088-.085.104-.09.126-.058.139-.055.178-.016.173-.019.213v12.888l.019.211.016.192.055.179.058.14.09.125.085.102.09.072.124.089.129.05.125.036.14.037.165.033.32.019.338.019h.452v.95h-.11zm37.958.476l-.249-.017h-.272l-.246-.016h-.278l-3.168-3.49-3.168-3.465-3.175-3.49-3.189-3.465v9.857l.015.37.018.352.04.316.035.286.054.263.067.212.09.208.109.16.124.16.164.12.179.09.215.087.234.055.268.05.305.02.32.018h.558v.95h-.124l-.81-.017-.802-.036-.807-.036-.81-.018-.84.018-.863.036-.84.036-.855.017h-.109v-.95h.463l.284-.019.268-.036.254-.07.214-.069.197-.126.18-.12.147-.16.14-.177.108-.211.09-.21.084-.245.063-.286.05-.278.034-.317.023-.337.016-.353v-10.368l-.016-.227-.039-.23-.068-.212-.074-.21-.113-.176-.107-.178-.123-.158-.164-.142-.142-.137-.18-.109-.175-.105-.18-.07-.197-.07-.198-.038-.196-.034h-.644v-.95h.11l.714.02.732.014.716.037.716.018.56-.018.551-.019.591-.018h.611l2.743 3.049 2.757 3.027 2.747 3.045 2.756 3.048v-9.048l-.017-.356-.057-.3-.067-.28-.09-.228-.106-.212-.126-.176-.145-.158-.164-.126-.159-.104-.178-.07-.164-.072-.183-.05-.156-.04-.157-.013-.31-.02h-.66v-.95h.123l.88.02.857.014.879.037.88.018.766-.018.773-.037.772-.014.772-.02h.11v.95h-.486l-.395.02-.18.014-.197.039-.175.05-.164.072-.18.103-.147.128-.14.174-.125.194-.13.247-.09.28-.085.337-.057.403-.033.44-.016.51v11.833l.016.634.052.614.072.582v.069l.018.021v.033h-.09zm33.875-.475l.046.106-1.662-.018-1.648-.035-1.652-.036-1.652-.017-1.641.017-1.651.036-1.669.035-1.645.018h-.115v-.95h.453l.338-.018.327-.037.159-.016.145-.037.142-.052.124-.07.106-.09.109-.104.09-.121.089-.143.057-.177.05-.193.04-.227v-13.12l-.04-.173-.05-.178-.057-.14-.09-.125-.09-.104-.108-.088-.106-.07-.124-.053-.142-.053-.145-.016-.16-.039-.326-.033h-.788v-.951h.111l.98.019 1.005.015.987.036.985.02.947-.02.953-.036.953-.015.947-.019h.109v.951h-1.072l-.312.019-.264.053-.129.033-.107.053-.108.053-.073.085-.085.09-.057.123-.05.143-.04.157-.017.193-.016.214v12.691l.016.16.018.16.04.138.035.124.071.106.068.09.073.089.092.07.106.07.106.07.232.086.271.071.271.034.337.032h.344l.354.025h.824l.468-.025.485-.032.48-.034.186-.033.192-.038.36-.106.322-.139.326-.158.283-.178.255-.21.229-.211.18-.214.126-.21.123-.212.112-.232.108-.206.158-.458.128-.42v-.022l.018-.015v-.05h.948v.034l-.017.032v.074l-.239 1.032-.229 1.06-.232 1.037-.231 1.04-.018.02v.051l-.021.018h-.073zM4.391 95.462l-.016-.372-.024-.352-.016-.314-.05-.303-.057-.28-.051-.244-.072-.23-.092-.21-.09-.215-.106-.172-.107-.162-.13-.14-.125-.143-.123-.103-.142-.107-.145-.09-.158-.085-.148-.052-.337-.11-.338-.068-.378-.053-.378-.018-.378-.02-.766-.012v-1.164l1.34.054 1.365.019 1.36.017h1.364l1.572-.017 1.85-.037 2.113-.02 2.42-.016h.558l.536.017.535.037.542.036.518.05.518.056.503.068.5.089.485.087.485.104.484.109.463.123.45.124.446.139.445.138.435.159.435.177.405.16.395.196.417.192.372.194.395.212.377.209.356.214.36.225.345.25.676.475.631.528.604.547.49.562.536.581.501.62.446.611.434.651.39.67.342.673.322.682.27.704.248.723.215.72.163.725.123.737.108.74.056.758.018.74-.018.44-.022.474-.05.514-.057.543-.084.564-.123.583-.148.613-.18.616-.197.653-.232.632-.288.672-.304.65-.36.652-.388.67-.43.634-.237.336-.248.313-.27.3-.272.32-.287.313-.287.302-.247.297-.322.284-.321.28-.363.283-.36.283-.37.261-.397.264-.416.247-.413.25-.445.223-.45.233-.462.21-.485.21-.502.197-.52.192-.54.161-.552.173-.559.142-.59.14-.611.123-.608.104-.644.105-.664.089-.66.073-.705.053-.711.035-.737.034h-.75l-1.725-.02-1.68-.032-1.647-.017-1.618-.02h-1.56l-1.517.037-1.545.018-1.54.034v-1.179l.965-.086.433-.055.39-.07.377-.088.345-.09.305-.124.287-.156.123-.09.108-.088.107-.102.107-.106.107-.14.09-.124.072-.16.067-.155.075-.18.056-.177.108-.421.05-.476.056-.545V95.462zm4.495 21.2l.022.316.017.3.033.28.057.263.051.267.077.231.086.206.09.212.107.195.125.177.13.16.14.158.142.136.146.125.158.122.18.108.163.089.196.084.378.145.396.105.411.085.412.057.428.034.428.016.412.019.469-.02h.45l.446-.033.429-.035.434-.054.41-.05.39-.075.401-.066.394-.088.372-.088.361-.107.354-.105.361-.125.338-.143.328-.122.339-.156.303-.143.304-.158.592-.352.554-.369.518-.403.501-.425.45-.442.452-.474.396-.493.372-.512.338-.546.31-.544.287-.563.265-.563.238-.6.213-.595.18-.617.158-.617.148-.62.105-.632.091-.632.067-.636.058-.633.033-.633v-.635l-.017-.789-.033-.776-.09-.756-.11-.744-.144-.722-.165-.701-.208-.687-.238-.67-.246-.654-.288-.633-.322-.598-.343-.596-.378-.564-.411-.547-.412-.51-.462-.508-.485-.461-.5-.458-.526-.422-.552-.389-.593-.368-.592-.337-.625-.297-.666-.28-.659-.25-.7-.227-.716-.18-.754-.154-.756-.122-.783-.092-.79-.049-.823-.019h-.665l-.592.02-.948.048-.755.069-.647.039v24.598zm143.047 14.666l-.484.035-.468.053-.464.088-.467.106-.45.106-.43.157-.431.158-.408.176-.417.196-.39.228-.377.228-.36.267-.356.264-.344.279-.32.3-.306.316-.287.334-.27.355-.266.35-.237.372-.23.383-.197.407-.181.402-.159.424-.162.425-.125.437-.09.46-.09.458-.056.458-.034.476-.018.491.018.494.034.478.056.47.09.48.11.439.128.441.14.439.158.404.203.407.192.384.237.372.23.37.267.353.276.312.297.32.305.319.321.278.344.267.361.265.372.225.378.23.393.194.413.195.435.156.428.14.445.143.452.105.467.089.461.072.486.05.502.036.501.02.501-.02.486-.035.48-.05.484-.073.468-.106.468-.105.445-.142.429-.158.433-.175.412-.21.396-.212.393-.23.374-.244.36-.286.337-.279.344-.3.306-.333.304-.335.287-.353.247-.366.255-.393.231-.385.214-.425.18-.42.163-.442.16-.459.122-.472.107-.477.076-.51.07-.492.04-.53v-1.018l-.04-.478-.07-.474-.092-.458-.107-.441-.124-.418-.164-.426-.158-.405-.198-.388-.214-.37-.235-.352-.248-.353-.271-.335-.288-.314-.304-.299-.321-.283-.339-.281-.344-.249-.377-.245-.373-.228-.394-.194-.418-.194-.404-.175-.436-.158-.445-.14-.451-.108-.463-.108-.467-.087-.484-.072-.486-.032-.496-.035h-.987zm1.54 1.392l.339.086.32.106.311.124.304.14.288.158.28.195.272.193.247.212.237.226.231.247.215.25.22.264.174.28.198.3.163.284.164.315.142.317.124.316.122.337.114.333.107.334.084.333.074.35.05.34.056.349.056.338.018.35.022.336.012.333-.012.683-.04.673-.072.687-.09.671-.074.331-.067.336-.075.315-.106.321-.09.297-.123.297-.131.3-.14.281-.159.266-.186.265-.174.243-.214.248-.22.213-.232.212-.247.191-.271.178-.288.141-.321.14-.32.121-.362.108-.36.07-.39.069-.41.036h-.813l-.355-.051-.338-.055-.323-.07-.326-.107-.322-.122-.287-.139-.289-.159-.286-.197-.249-.193-.247-.209-.253-.229-.23-.249-.222-.262-.198-.281-.19-.282-.182-.317-.18-.303-.163-.33-.14-.335-.147-.35-.107-.355-.124-.37-.09-.37-.084-.368-.097-.387-.051-.403-.057-.392-.05-.403-.017-.405-.017-.405-.022-.405.022-.637.05-.614.09-.635.108-.595.09-.32.074-.297.1-.283.109-.3.11-.28.148-.267.14-.263.141-.26.182-.249.18-.249.174-.208.22-.23.215-.195.23-.194.254-.175.266-.157.287-.144.289-.123.304-.106.338-.085.343-.07.355-.052a7.587 7.587 0 0 1 1.866.052zM42.598 120.816h-.485l-.429-.016-.197-.02-.197-.034-.18-.052-.164-.054-.142-.088-.141-.088-.105-.123-.09-.161-.091-.155-.057-.215-.033-.225v-17.713l-.034-.246-.022-.108-.035-.105-.039-.07-.051-.053-.073-.036-.086-.015-.179.015-.197.036-.214.068-.238.108-.18.087-.355.14-1.183.408-1.558.493-1.668.508v.723l.592.32.502.275.214.142.197.145.18.141.158.156.132.178.122.175.092.211.067.23.073.244.033.3.04.317v12.661l-.016.265-.024.225-.05.215-.075.155-.082.161-.114.123-.124.088-.147.088-.14.054-.175.052-.188.035-.19.019-.434.016h-1.342v1.178l2.542-.05 1.259-.019 1.235-.019 1.256.02 1.218.036 1.2.032h1.18v-1.178zm150.044 20.654h-4.386l2.206-6.585 2.18 6.584zm7.391 6.708l-.292-.019-.248-.036-.23-.07-.199-.088-.181-.123-.164-.158-.124-.194-.122-.23-.233-.58-.236-.616-.444-1.301-4.608-12.852-.124-.318-.112-.3-.074-.089-.067-.036-.073-.016h-.052l-.14.016-.096.036-.463.245-.574.284-.626.28-.327.124-.298.122-.091.372-.111.387-.25.83-.265.787-.269.744-3.998 11.284-.073.175-.09.178-.092.156-.106.14-.108.144-.106.122-.125.106-.123.103-.147.09-.142.088-.157.053-.146.072-.164.033-.158.036-.18.019h-.412v.97l.107-.02 1.34-.053.683-.035h1.417l.755.035 1.521.053.108.02v-.97h-.697l-.306-.038-.31-.033-.265-.072-.124-.05-.108-.052-.09-.056-.09-.067-.074-.09-.034-.087-.039-.089-.016-.126.016-.159.039-.173.125-.44.18-.512.198-.602.768-2.48h5.523l.948 2.783.196.564.164.494.108.403.016.16.017.122-.017.088-.016.071-.057.073-.05.067-.074.056-.091.051-.196.069-.232.054-.236.052-.248.019h-.611v.97l.109-.02 1.9-.053.936-.035h1.803l.864.035 1.7.053.11.02v-.97h-.25zM40.698 92.025l-.016.234-.041.209-.05.21-.072.215-.09.191-.11.177-.14.176-.146.16-.158.139-.163.125-.198.102-.173.092-.222.086-.212.053-.217.036h-.467l-.23-.036-.215-.053-.198-.086-.197-.092-.18-.102-.18-.125-.16-.139-.144-.16-.125-.176-.107-.177-.108-.191-.072-.215-.052-.21-.04-.209-.016-.234.017-.224.04-.21.05-.215.073-.211.108-.19.107-.179.125-.174.145-.163.158-.14.18-.12.181-.107.197-.106.198-.069.214-.056.23-.033h.468l.217.033.212.056.222.069.173.106.198.106.163.121.158.14.146.163.14.174.11.178.09.19.072.212.05.215.041.21v.224zm70.144 49.445h-4.386l2.204-6.585 2.182 6.584zm7.39 6.708l-.292-.019-.249-.036-.23-.07-.198-.088-.18-.123-.165-.158-.123-.194-.124-.23-.232-.58-.236-.616-.445-1.301-4.607-12.852-.123-.318-.112-.3-.074-.089-.068-.036-.073-.016h-.052l-.14.016-.095.036-.463.245-.575.284-.625.28-.328.124-.3.122-.09.372-.112.387-.248.83-.265.787-.27.744-3.998 11.284-.072.175-.09.178-.092.156-.106.14-.11.144-.104.122-.125.106-.122.103-.148.09-.14.088-.158.053-.147.072-.165.033-.156.036-.18.019h-.415v.97l.109-.02 1.34-.053.683-.035h1.415l.756.035 1.521.053.108.02v-.97h-.7l-.302-.038-.312-.033-.263-.072-.126-.05-.107-.052-.09-.056-.09-.067-.072-.09-.035-.087-.04-.089-.016-.126.016-.159.04-.173.125-.44.178-.512.199-.602.767-2.48h5.525l.946 2.783.197.564.163.494.108.403.017.16.018.122-.018.088-.017.071-.055.073-.053.067-.072.056-.091.051-.197.069-.23.054-.238.052-.248.019h-.609v.97l.108-.02 1.9-.053.936-.035h1.804l.862.035 1.703.053.108.02v-.97h-.25zm96.512-12.228c-.24 0-.464-.039-.679-.115a2.129 2.129 0 0 1-.587-.317 2.214 2.214 0 0 1-.872-1.753 2.203 2.203 0 0 1 .41-1.273 2.18 2.18 0 0 1 1.049-.796 2.08 2.08 0 0 1 1.357 0 2.192 2.192 0 0 1 1.048.796 2.202 2.202 0 0 1 .303 1.95 2.22 2.22 0 0 1-1.351 1.393c-.214.076-.44.114-.678.115zm0 .405a2.582 2.582 0 0 0 1.532-.5 2.65 2.65 0 0 0 .554-.561 2.563 2.563 0 0 0 .491-1.529c0-.29-.043-.564-.128-.823a2.58 2.58 0 0 0-.918-1.278 2.563 2.563 0 0 0-1.531-.501c-.288 0-.561.046-.82.132a2.58 2.58 0 0 0-1.629 1.647 2.7 2.7 0 0 0-.131.823c.002.287.047.56.131.818.087.257.208.495.364.71a2.6 2.6 0 0 0 1.265.928c.259.086.532.131.82.134zm-.394-3.863h.337a.803.803 0 0 1 .29.05.45.45 0 0 1 .216.173.607.607 0 0 1 .083.333c0 .216-.048.385-.142.504-.093.118-.235.181-.424.182h-.36v-1.242zm-.826-.056c.094.01.167.022.216.031.05.009.086.025.103.047.02.023.03.058.031.106a2.24 2.24 0 0 1 0 .203v1.765a2.18 2.18 0 0 1 0 .2c-.001.047-.011.08-.03.101-.018.02-.053.035-.104.045-.05.008-.122.016-.216.025v.161h1.204v-.161a5.36 5.36 0 0 1-.226-.025.226.226 0 0 1-.11-.045c-.023-.02-.035-.054-.038-.101-.004-.048-.005-.115-.004-.2v-.694h.403c.128.185.24.352.333.503l.243.386c.07.108.133.19.194.249.06.06.123.088.187.088h.458v-.072a1.348 1.348 0 0 1-.187-.148 4.598 4.598 0 0 1-.426-.488l-.443-.606c.118-.037.227-.094.323-.166a.847.847 0 0 0 .228-.267.716.716 0 0 0 .087-.349.607.607 0 0 0-.284-.524.92.92 0 0 0-.293-.126 1.264 1.264 0 0 0-.332-.044h-1.317v.106z"/><path d="M100.812 87.73c-24.351 0-44.091-19.436-44.091-43.413C56.72 20.341 76.46.904 100.81.904h12.295c24.35 0 44.09 19.437 44.09 43.413 0 23.977-19.74 43.413-44.09 43.413h-12.294z" fill="#035CA2"/><path fill="#FEFEFE" d="M100.557 5.126l-1.032.02-1.018.037-1.023.068-.995.088-1.023.106-.983.14-.995.158-.966.192-.984.195-.945.247-.971.244-.922.279-.95.302-.91.312-.91.335-.91.368-.894.388-.876.403-.86.423-.855.435-.842.455-.838.496-.803.49-.804.526-.787.545-.787.542-.752.58-.746.595-.732.6-.714.632-.72.63-.68.67-.657.665-.663.703-.624.698-.624.72-.606.721-.573.757-.574.752-.55.79-.523.793-.516.788-.478.824-.485.825-.45.844-.426.844-.41.857-.394.877-.355.897-.357.893-.327.896-.298.93-.286.913-.253.95-.23.93-.22.964-.173.946-.18.985-.124.963-.123 1.002-.09.982-.074 1-.034 1v2.035l.034 1.002.073 1.003.091.997.123.982.124.965.18.984.173.946.22.967.23.95.253.928.286.928.298.915.327.899.357.893.355.892.394.877.41.865.425.839.451.844.485.825.478.824.516.808.524.77.55.79.573.756.573.755.606.719.624.719.624.718.663.687.658.667.68.667.72.634.713.575.732.577.746.598.752.581.787.545.787.543.804.528.803.489.838.49.842.46.856.437.859.42.876.407.894.384.91.369.91.335.91.315.95.3.922.281.971.244.945.23.984.208.966.192.995.158.983.144 1.023.104.995.086 1.023.072 1.018.032 1.032.018 1.034-.018 1.023-.032 1.018-.072 1.017-.086 1-.104.983-.144 1.002-.158.965-.192.977-.208.967-.23.95-.244.946-.282.93-.299.905-.315.934-.335.893-.37.894-.383.87-.407.86-.42.855-.437.842-.46.838-.49.825-.489.804-.528.786-.543.765-.545.764-.58.752-.599.737-.577.713-.575.691-.634.686-.667.681-.667.64-.687.64-.718.63-.72.59-.718.585-.755.573-.756.54-.79.532-.77.495-.808.507-.824.46-.825.45-.844.428-.84.408-.864.394-.877.377-.892.337-.893.32-.9.31-.914.287-.928.245-.929.248-.949.203-.967.197-.946.157-.984.147-.965.106-.982.089-.997.069-1.003.038-1.002.017-1.014-.017-1.02-.038-1.002-.07-1-.088-.981-.106-1.002-.147-.963-.157-.985-.197-.946-.203-.965-.248-.93-.245-.949-.287-.913-.31-.93-.32-.896-.337-.893-.377-.897-.394-.877-.408-.857-.429-.844-.449-.844-.46-.825-.507-.824-.495-.788-.532-.793-.54-.79-.573-.752-.585-.757-.59-.72-.63-.72-.64-.7-.64-.702-.68-.665-.687-.67-.691-.63-.713-.632-.737-.6-.752-.594-.764-.581-.765-.542-.786-.545-.804-.526-.825-.49-.838-.496-.842-.455-.855-.435-.86-.423-.87-.403-.894-.388-.893-.368-.934-.335-.905-.312-.93-.302-.945-.28-.951-.243-.967-.247-.977-.195-.965-.192-1.002-.158-.983-.14-1-.106-1.017-.088-1.018-.068-1.023-.037-1.017-.02z"/><path fill="#035CA2" d="M91.505 67.519l-.04-.016h-.016l-.039-.017-.017-.02h-.035l-.016-.016h-.035l-.038-.02-.017-.015h-.035l-.016-.018-.039-.02h-.017l-.034-.016h-.016l-.04-.016-.017-.016h-.035l-.039-.023-.017-.016h-.033l-.022-.016h-.034l-.016-.018-.04-.017h-.017l-.033-.018-.017-.02h-.04l-.016-.017-.035-.016h-.015l-.036-.02-.038-.016h-.018l-.038-.017-.017-.016h-.034l-.017-.02-.039-.016h-.015l-.036-.02-.017-.016h-.04l-.016-.017-.034-.016h-.017l-.04-.017-.015-.022h-.034l-.018-.016-.039-.018h-.016l-.034-.016-.016-.017h-.04l-.017-.016-.034-.02-.016-.016h-.04l-.016-.02-.034-.016h-.018l-.038-.018-.018-.017h-.038l-.018-.018-.034-.016-.023-.02h-.033l-.017-.016-.033-.018-.018-.018h-.038l-.018-.017-.034-.015h-.016l-.039-.02-.017-.02-.034-.016h-.017l-.039-.017-.016-.018-.035-.016h-.021l-.034-.021-.018-.016-.04-.018h-.016l-.016-.016-.034-.016-.018-.02h-.037l-.02-.018-.032-.015-.017-.02h-.04l-.017-.02-.032-.016-.019-.017h-.037l-.019-.015-.033-.018-.017-.02-.021-.018h-.035l-.017-.014-.034-.018-.021-.019h-.034l-.017-.015-.04-.021-.017-.015-.038-.02h-.018l-.017-.017-.032-.017-.019-.015-.038-.017h-.019l-.033-.02-.016-.02-.035-.015-.021-.018h-.019l-.033-.017-.015-.02-.04-.014-.016-.018-.034-.02h-.023l-.017-.015-.034-.02-.022-.016-.034-.017h-.018l-.033-.018-.022-.02-.016-.018-.035-.016-.017-.016h-.032l-.024-.018-.016-.019-.034-.018-.017-.018-.04-.017-.016-.019h-.034l-.018-.016-.021-.016-.034-.018-.017-.019-.033-.019h-.018l-.022-.014-.034-.019-.017-.017-.038-.016-.018-.017-.016-.017-.04-.02h-.017l-.033-.018-.018-.018-.017-.016-.04-.016-.014-.016-.034-.023-.017-.017h-.018l-.04-.017-.015-.016-.017-.017-.033-.018-.024-.017-.034-.02-.017-.016-.022-.016h-.034l-.016-.02-.04-.017-.017-.017-.017-.015-.035-.024-.022-.015-.016-.018-.033-.016-.018-.017h-.016l-.039-.019-.017-.019-.034-.018-.017-.016-.016-.018-.04-.017-.016-.017-.018-.017-.04-.019-.016-.02-.017-.013-.034-.02h-.015l-.04-.017-.018-.016-.016-.018-.04-.018-.017-.019-.016-.016-.034-.017-.022-.017-.018-.016-.033-.02-.017-.019-.017-.018-.04-.014-.018-.018-.015-.016-.033-.02-.018-.018-.022-.019h-.034l-.016-.016-.018-.016-.033-.019-.023-.018-.017-.016-.033-.02-.023-.018-.016-.017-.034-.016-.024-.017-.017-.017-.016-.02-.033-.018-.023-.017-.017-.017-.035-.017-.016-.019-.016-.016-.04-.02-.017-.016-.016-.016-.033-.02-.019-.017-.015-.016-.04-.018-.016-.018-.019-.018-.016-.019-.04-.014-.016-.019-.017-.016-.037-.017-.019-.022-.017-.014-.016-.02-.035-.016-.021-.017-.017-.018-.034-.019-.016-.018-.018-.017-.022-.015-.034-.018-.016-.02-.017-.016-.04-.018-.018-.017-.015-.017-.018-.02-.038-.016-.019-.017-.016-.016-.017-.04-.035-.016-.015-.016-.022-.017-.033-.019-.019-.02-.022-.017-.016-.016-.035-.017-.021-.02-.018-.016-.015-.016-.035-.016-.022-.02-.018-.02-.017-.016-.033-.016-.017-.017-.017-.017-.022-.035-.034-.017-.017-.02-.017-.017-.016-.016-.018-.016-.038-.019-.018-.02-.018-.016-.016-.018-.038-.017-.018-.018-.017-.016-.021-.037-.034-.016-.018-.02-.018-.017-.016-.016-.022-.017-.033-.022-.016-.017-.019-.017-.015-.016-.041-.016-.017-.038-.017-.018-.016-.017-.017-.016-.04-.019-.016-.017-.018-.018-.016-.017-.016-.018-.04-.02-.018-.03-.015-.019-.018-.018-.015-.017-.04-.017-.017-.02-.017-.017-.018-.015-.016-.036-.038-.02-.019-.016-.022-.016-.016-.018-.018-.017-.034-.02-.022-.019-.017-.032-.017-.016-.016-.021-.019-.016-.032-.017-.022-.018-.018-.018-.017-.035-.016-.016-.017-.017-.034-.022-.022-.017-.016-.016-.018-.017-.016-.036-.018-.016-.033-.02-.023-.017-.016-.02-.023-.012-.017-.037-.017-.016-.017-.022-.033-.014-.023-.02-.017-.018-.016-.032-.018-.019-.016-.016-.04-.02-.015-.016-.018-.018-.017-.032-.017-.024-.017-.014-.022-.018-.018-.016-.034-.036-.015-.017-.018-.019-.022-.018-.017-.015-.017-.02-.017-.033-.016-.017-.04-.022-.017-.016-.016-.018-.018-.032-.015-.02-.018-.017-.022-.019-.018-.016-.016-.036-.034-.017-.022-.018-.017-.016-.017-.019-.022-.036-.018-.017-.017-.015-.016-.018-.017-.037-.033-.015-.023-.02-.017-.015-.017-.018-.016-.036-.018-.018-.016-.018-.018-.016-.022-.036-.017-.017-.016-.019-.018-.017-.034-.016-.015-.036-.023-.017-.018-.019-.017-.02-.022-.032-.017-.017-.016-.018-.018-.02-.022-.034-.018-.017-.015-.016-.017-.02-.017-.035-.017-.018-.039-.015-.017-.02-.018-.034-.016-.016-.016-.02-.017-.017-.024-.032-.015-.02-.018-.016-.016-.017-.018-.035-.016-.02-.022-.015-.017-.018-.017-.036-.017-.02-.017-.016-.022-.033-.019-.02-.016-.017-.016-.015-.016-.036-.019-.02-.015-.017-.023-.017-.034-.038-.017-.017-.018-.017-.02-.032-.019-.02-.017-.017-.017-.019-.015-.033-.022-.02-.018-.016-.017-.035-.017-.018-.017-.019-.016-.032-.023-.018-.016-.016-.018-.02-.016-.033-.017-.019-.017-.016-.023-.034-.016-.02-.017-.02-.017-.03-.017-.019-.017-.019-.017-.017-.023-.035-.016-.017v-.019l-.017-.033-.017-.018-.023-.02-.016-.034-.017-.018-.022-.015-.017-.039-.018-.016-.016-.017-.018-.033-.015-.02-.024-.017-.016-.038-.017-.014-.016-.016-.019-.037-.015-.016-.017-.02-.024-.036-.016-.016-.017-.016-.017-.037-.016-.02-.017-.015v-.034l-.017-.016-.023-.02-.016-.035-.017-.019-.018-.015-.022-.036-.016-.016-.018-.036-.016-.02-.017-.017-.016-.033-.023-.023-.017-.015v-.034l-.017-.017-.018-.016-.016-.039-.017-.017-.022-.015-.016-.036-.018-.018-.017-.037-.017-.016-.022-.018-.017-.034v-.017l-.017-.016-.016-.037-.018-.019-.015-.031-.023-.02-.019-.018-.016-.035-.017-.017v-.036l-.017-.016-.016-.02-.024-.034-.015-.019-.018-.018-.015-.031-.019-.022v-.033l-.016-.018-.017-.016-.023-.039-.015-.016-.018-.033-.018-.018-.015-.019v-.036l-.023-.015-.016-.036-.023-.017-.013-.017-.02-.036-.018-.02v-.032l-.018-.017-.016-.017-.022-.036-.017-.019-.017-.033v-.016l-.017-.038-.017-.018-.017-.019-.017-.035-.02-.015-.019-.034v-.021l-.017-.017-.018-.033-.015-.018-.018-.038v-.016l-.016-.034-.022-.019-.018-.018-.016-.035-.018-.016v-.036l-.022-.017-.01-.036-.024-.017-.016-.033v-.019l-.017-.017-.018-.035-.022-.017-.016-.036v-.016l-.017-.037-.017-.019-.017-.032-.017-.018v-.018l-.022-.034-.016-.02-.018-.037v-.015l-.017-.033-.016-.023-.023-.033-.017-.017V55.9l-.017-.018-.017-.018-.015-.033v-.02l-.019-.033-.022-.016-.017-.036-.018-.018v-.035l-.016-.016-.016-.036-.017-.017v-.036l-.023-.016-.017-.037-.016-.019v-.017l-.017-.033-.016-.02v-.036l-.019-.015-.016-.035-.023-.018v-.034l-.017-.022-.016-.033-.017-.016v-.036l-.017-.02-.021-.034-.019-.019v-.032l-.016-.018-.017-.035v-.018l-.023-.036-.017-.016-.016-.036V54.9l-.018-.035-.022-.017v-.035l-.017-.017-.016-.036v-.017l-.017-.037-.017-.014-.017-.037v-.017l-.016-.036-.024-.016v-.04l-.016-.016-.017-.034v-.016l-.016-.038-.017-.017v-.033l-.017-.016-.016-.04v-.015l-.023-.034-.016-.019v-.033l-.018-.021-.018-.036v-.033l-.021-.016-.011-.035v-.017l-.024-.038-.016-.014v-.034l-.017-.022-.022-.034v-.017l-.018-.035-.016-.017v-.036l-.016-.02v-.032l-.02-.018-.014-.038v-.033l-.024-.015-.015-.038v-.02l-.019-.032v-.02l-.016-.029-.018-.02v-.036l-.015-.02-.022-.033v-.035l-.019-.02v-.034l-.016-.015-.017-.033v-.02l-.017-.036v-.017l-.017-.036-.022-.036v-.017l-.017-.035v-.017l-.017-.032-.017-.023v-.034l-.016-.015v-.038l-.017-.036v-.016l-.023-.037-.016-.014v-.037l-.018-.017v-.033l-.016-.037v-.018l-.017-.034-.017-.017v-.034l-.022-.018v-.036l-.017-.035v-.017l-.016-.036v-.02l-.018-.033-.017-.035v-.018l-.016-.036v-.017l-.024-.035v-.016l-.015-.039v-.033l-.018-.017v-.035l-.016-.017v-.036l-.024-.034v-.016l-.016-.036v-.02l-.017-.032-.017-.036v-.017l-.017-.037v-.016l-.022-.037v-.032l-.018-.02v-.036l-.016-.016v-.035l-.016-.037V51.6l-.018-.037v-.016l-.016-.033v-.055l-.023-.034v-.016l-.017-.04v-.035l-.017-.014v-.036l-.017-.019v-.034l-.016-.035v-.017l-.018-.037v-.035l-.017-.016v-.034l-.022-.017v-.07l-.016-.017v-.036l-.018-.036v-.017l-.016-.035v-.016l-.017-.04v-.05l-.017-.035v-.037l-.022-.016v-.033l-.017-.02v-.069l-.017-.018v-.035l-.016-.035v-.016l-.019-.036v-.055l-.022-.035v-.016l-.016-.034v-.054l-.017-.034v-.036l-.016-.016v-.073l-.023-.014v-.073l-.017-.017v-.036l-.016-.035v-.051l-.019-.034v-.055l-.016-.016v-.036l-.017-.036v-.052l-.023-.035v-.055l-.016-.033v-.052l-.016-.037v-.051l-.017-.035v-.054l-.018-.033v-.055l-.017-.033v-.054l-.021-.034v-.055l-.017-.032v-.053l-.017-.036v-.053l-.018-.036v-.088l-.015-.033v-.054l-.018-.036v-.05l-.017-.033v-.09l-.022-.02v-.105l-.017-.016v-.072l-.017-.016v-.09l-.017-.032v-.088l-.017-.036v-.089l-.022-.033v-.122l-.018-.02v-.088l-.016-.035v-.12l-.017-.036v-.108l-.016-.033v-.124l-.018-.035v-.123l-.022-.018v-.156l-.016-.034v-.14l-.018-.036v-.178l-.017-.033v-.194l-.017-.02V45.9l-.022-.035v-.32l-.016-.018v-.367l-.018-.036v-1.613l.018-.015v-.372l.016-.037v-.312l.022-.019v-.21l.017-.035v-.193l.017-.02v-.193l.018-.016v-.161l.016-.033v-.141l.022-.033v-.122l.018-.038v-.122l.016-.017v-.124l.017-.034v-.123l.016-.018v-.105l.018-.016v-.128l.022-.033v-.086l.017-.036v-.089l.017-.016v-.089l.017-.035v-.069l.017-.02v-.085l.022-.037v-.086l.017-.038v-.05l.018-.035v-.054l.015-.036v-.085l.018-.036v-.052l.017-.036v-.051l.017-.038v-.05l.02-.036v-.051l.018-.037v-.057l.018-.032v-.052l.017-.033v-.052l.016-.035v-.054l.016-.033v-.056l.023-.033v-.053l.017-.035v-.021l.016-.033v-.052l.019-.035v-.054l.016-.033v-.02l.017-.035v-.053l.023-.036v-.05l.016-.035v-.036l.017-.016V38.4l.016-.017v-.031l.022-.036v-.054l.019-.019v-.032l.016-.034v-.022l.017-.034v-.052l.017-.035v-.036l.022-.018v-.033l.017-.016v-.072l.017-.017v-.038l.016-.033v-.017l.018-.036v-.014l.016-.038v-.051l.022-.036v-.035l.017-.02v-.033l.018-.017v-.038l.016-.034v-.016l.017-.036v-.02l.017-.034v-.035l.017-.016v-.036l.023-.037v-.05l.016-.02v-.034l.018-.034v-.018l.016-.031v-.022l.016-.033v-.033l.018-.02v-.036l.022-.016v-.036l.017-.036v-.018l.017-.036.017-.015v-.037l.016-.036v-.017l.024-.036v-.015l.016-.037v-.036l.018-.016v-.033l.015-.018v-.037l.024-.017v-.035l.016-.032v-.023l.017-.032.018-.017v-.034l.016-.038v-.015l.017-.037v-.017l.022-.037v-.016l.017-.036.017-.032v-.019l.016-.038v-.015l.018-.036v-.017l.016-.037.023-.035v-.017l.017-.032v-.024l.016-.032v-.017l.017-.036.017-.013v-.04l.017-.033v-.016l.022-.036.017-.02v-.033l.017-.016v-.036l.017-.036.016-.016v-.037l.019-.016v-.037l.022-.019.015-.032v-.018l.018-.036.016-.02v-.032l.019-.035v-.018l.015-.035.024-.017v-.037l.015-.016.02-.034v-.021l.015-.033v-.017l.016-.036.018-.02V34.7l.022-.033.017-.018v-.04l.016-.014.024-.037v-.016l.01-.034.022-.02v-.034l.018-.018.018-.032v-.023l.016-.033.023-.016v-.037l.016-.017.017-.035v-.02l.017-.032.016-.016v-.04l.017-.017.016-.033v-.016l.024-.04.016-.033v-.016l.017-.034.017-.016.017-.04v-.015l.016-.033.017-.02v-.035l.022-.017.018-.037v-.016l.016-.035.017-.02.023-.033v-.016l.017-.036.016-.022v-.015l.019-.035.02-.018.018-.033v-.019l.017-.037.016-.016.017-.033v-.019l.023-.037.016-.016.019-.033v-.017l.016-.037.017-.018v-.034l.016-.014.017-.04.023-.017v-.037l.017-.016.016-.031.016-.02v-.038l.018-.017.017-.014.022-.037.019-.018v-.035l.015-.02.017-.033.017-.016v-.04l.017-.015.023-.033.016-.017.017-.035v-.02l.018-.016.016-.033.022-.018v-.038l.017-.016.017-.033.017-.018.017-.038v-.018l.016-.016.022-.035.018-.016.017-.037v-.02l.016-.033.023-.016.011-.038.022-.018v-.016l.018-.035.016-.019.018-.036.022-.015.016-.036v-.017l.018-.017.015-.036.018-.02.017-.032v-.017l.019-.036.02-.019.017-.017.017-.033.017-.016.017-.039v-.018l.017-.015.017-.034.022-.02.016-.036.018-.015v-.036l.018-.017.02-.016.013-.04.023-.017.016-.031.023-.02v-.017l.015-.037.018-.014.018-.038.015-.017.023-.015.017-.037.016-.02v-.034l.019-.016.015-.016.018-.039.015-.016.024-.017.016-.033.017-.017v-.038l.017-.016.016-.018.019-.035.023-.02.015-.033.018-.019.016-.017.017-.036v-.017l.017-.019.022-.033.017-.016.017-.036.018-.02.016-.016.022-.037.017-.017.016-.015.018-.036.017-.02v-.017l.017-.032.023-.018.016-.038.017-.014.016-.02.018-.033.016-.018.022-.018.018-.036.017-.017.016-.016.023-.039.017-.016v-.017l.017-.036.016-.017.017-.016.017-.036.016-.018.024-.017.017-.034.015-.016.019-.023.016-.033.017-.017.016-.019.024-.033.015-.02.018-.017.016-.036.018-.015.017-.017.022-.038.017-.015.016-.02.023-.031.017-.018.017-.02v-.034l.016-.017.023-.018.017-.031.017-.022.017-.018.017-.035.017-.016.016-.018.023-.017.017-.036.017-.02.016-.016.018-.033.016-.02.023-.018.016-.034.017-.016.017-.02.017-.017.018-.037.022-.015.015-.02.017-.033.017-.017.019-.02.02-.018.018-.033.017-.017.034-.017.023-.035.015-.021.019-.016.016-.016.016-.032.016-.023.019-.016.022-.034.017-.018.017-.015.017-.024.017-.032.022-.016.016-.02.018-.017.016-.035.018-.017.015-.019.024-.018.017-.033.016-.016.016-.022.018-.033.017-.017.039-.02.017-.015.017-.037.017-.017.015-.015.018-.02.022-.017.018-.033.016-.02.017-.018.022-.018.017-.032.018-.017.023-.017.015-.021.034-.034.018-.017.016-.015.017-.02.022-.036.018-.017.016-.016.018-.017.016-.02.017-.035.017-.017.023-.02.033-.016.017-.032.016-.02.017-.02.018-.017.022-.016.017-.035.017-.019.022-.019.034-.017.016-.015.018-.036.022-.017.018-.016.015-.02.018-.017.016-.032.017-.021.04-.015.016-.018.017-.021.017-.034.017-.016.022-.016.018-.017.015-.018.034-.038.018-.017.022-.016.017-.017.017-.018.017-.021.018-.033.015-.019.04-.016.016-.017.018-.017.016-.02.017-.035.023-.017.033-.017.017-.02.017-.013.017-.022.023-.033.016-.018.023-.018.033-.016.018-.017.016-.02.018-.035.016-.017.022-.016.034-.017.017-.019.016-.018.017-.016.018-.035.022-.018.032-.017.019-.018.016-.02.017-.017.017-.016.022-.033.034-.023.018-.015.016-.018.022-.015.019-.019.038-.018.016-.016.018-.035.017-.02.016-.018.04-.016.016-.016.018-.017.015-.022.019-.016.039-.035.016-.018.016-.017.018-.016.016-.02.04-.016.017-.02.016-.013.017-.02.017-.017.04-.038.016-.015.019-.018.016-.017.033-.017.022-.018.016-.018.018-.016.018-.019.034-.017.02-.017.018-.034.018-.021.038-.018.016-.015.018-.017.018-.016.038-.02.018-.02.016-.017.017-.017.017-.018.034-.016.022-.017.017-.036.017-.02.033-.016.017-.017.018-.016.022-.02.035-.016.015-.019.018-.017.021-.018.035-.015.016-.02.022-.017.019-.016.033-.02.022-.016.015-.02.035-.015.017-.018.016-.017.019-.036.038-.019.018-.016.015-.016.019-.018.04-.015.016-.023.016-.017.034-.017.022-.015.018-.018.016-.016.034-.019.017-.02.02-.017.036-.015.016-.02.017-.017.019-.016.037-.017.017-.02.016-.02.04-.016.016-.016.019-.016.016-.017.04-.02.015-.018.019-.018.033-.015.016-.022.018-.015.04-.016.015-.02.016-.016.035-.017.017-.02.023-.016.033-.018.016-.015.017-.02.024-.019.034-.017.016-.016.023-.018.033-.014.017-.018.023-.02.033-.019h.018l.016-.016.034-.017.022-.017.018-.017.033-.022.015-.016.019-.017.04-.016.016-.016.017-.02.033-.017.018-.019.022-.017.034-.02.016-.015.018-.016.04-.017.015-.018.017-.021h.04l.016-.018.034-.017.017-.015.016-.019.04-.018.018-.015.016-.02.04-.017.016-.02.017-.016.034-.017.017-.014h.039l.016-.021.018-.015.033-.02.016-.015.022-.02.035-.016.017-.016.017-.02.04-.017.016-.02h.034l.022-.015.017-.017.034-.017.024-.017.033-.02.017-.018.016-.017.04-.016h.017l.017-.017.034-.02.015-.02.04-.016.016-.017.018-.018.033-.016h.017l.04-.018.016-.016.018-.02.038-.02.017-.015.034-.017h.022l.018-.018.033-.017.017-.018.034-.018.02-.018.02-.017h.033l.017-.019.04-.012.016-.022.034-.015.016-.02.024-.018h.032l.017-.018.035-.017.016-.017.022-.015.033-.017h.018l.034-.02.022-.017.034-.018.017-.017h.023l.034-.017.015-.016.04-.02.016-.02.033-.016h.019l.02-.016.036-.017.016-.018.033-.018h.019l.038-.02.019-.015.032-.018.017-.018h.018l.038-.017.018-.017.039-.019.017-.017h.034l.02-.02.035-.016.017-.017h.035l.021-.016.017-.017.033-.021.019-.018h.037l.019-.016.032-.016.017-.02h.04l.017-.017.032-.015.02-.02h.037l.018-.017.034-.018.016-.015h.016l.04-.02.018-.016.034-.017h.02l.036-.02.016-.016.039-.019h.017l.034-.017.017-.017.039-.016h.016l.034-.016.018-.02.038-.02h.018l.033-.016.017-.016h.033l.023-.018.034-.014.018-.024h.038l.018-.016.038-.017h.018l.034-.018.015-.015h.04l.017-.02.034-.017.018-.019h.039l.016-.017.034-.017h.016l.039-.018.018-.017h.034l.016-.017.039-.015h.017l.034-.022.017-.017h.04l.016-.018.036-.015.015-.021h.039l.017-.016.034-.02h.017l.038-.016h.018l.038-.017.036-.016h.015l.035-.02.016-.015h.04l.017-.018.033-.018h.017l.04-.018.016-.016h.034l.022-.02.033-.015h.017l.04-.018h.034l.017-.017.04-.02h.016l.034-.018.017-.014h.039l.016-.019h.035l.017-.017.038-.017h.035l.016-.016h.035l.017-.022.039-.017h.016l.04-.017zm18.111-.009V21.125l.877.351.854.384.86.403.82.46.82.455.787.508.77.526.748.562.73.582.703.597.673.63.664.666.624.667.606.7.573.742.557.736.533.772.501.771.46.807.432.827.41.84.377.86.338.878.32.877.269.914.25.914.201.93.173.946.124.95.113.979.05.968.018 1-.017.983-.05.981-.114.966-.124.946-.173.953-.202.927-.25.93-.267.895-.32.894-.34.88-.376.84-.41.844-.432.825-.46.807-.5.791-.534.754-.557.755-.573.718-.606.703-.624.684-.664.65-.673.63-.703.615-.73.58-.748.543-.77.525-.787.513-.82.474-.82.435-.86.424-.854.366-.86.354z"/></g></svg>