<svg width="179" height="116" viewBox="0 0 179 116" xmlns="http://www.w3.org/2000/svg"><title>discover</title><g fill="none" fill-rule="evenodd"><path d="M177.6 64.54C.1.98 129.07 98.78 40.19 114.11H177.6V64.54z" fill="#F08200"/><path d="M178.23.98H0v114.41h178.87V.98h-.64zm-.65 1.3v111.8H1.29V2.29h176.29v-.01z" fill="#000"/><path d="M1.29 2.29v111.82h38.9C129.07 98.78 177.6 64.54 177.6 64.54V2.29H1.29zm23.55 56.58c-2.49 2.08-5.32 3-9.24 3H8.23V35.98h7.41c8.19 0 13.9 5.31 13.9 13a13 13 0 0 1-4.7 9.89zm12.07 3h-5V35.98h5v25.89zm10.91.63c-3.88 0-6.67-1.52-9-4.93l3.26-3.14a6 6 0 0 0 5.51 3.45h.2a3.69 3.69 0 0 0 3.72-3.66A3.1 3.1 0 0 0 50 51.55a20.14 20.14 0 0 0-3.51-1.47c-4.74-1.71-6.37-3.53-6.37-7.1 0-4.24 3.49-7.42 8.07-7.42a11.32 11.32 0 0 1 7.61 2.87l-2.64 3.46a5.22 5.22 0 0 0-4.07-2.1c-2.18 0-3.76 1.24-3.76 2.87 0 1.4.92 2.14 3.92 3.26 5.75 2.06 7.45 3.97 7.45 8.06 0 5-3.7 8.52-8.88 8.52zm30.51-19.59c-2.1-2.05-3.92-2.93-6.33-2.93h-.22a8.6 8.6 0 0 0-8.29 8.9c0 5.24 3.61 8.93 8.69 8.93a8.12 8.12 0 0 0 6.1-2.83v6A14 14 0 0 1 72 62.46h-.37a13.4 13.4 0 0 1-13.34-13.48v-.2c.131-7.51 6.32-13.493 13.83-13.37a12.89 12.89 0 0 1 6.21 1.57v5.93zM93.7 62.79c-7.6 0-13.763-6.157-13.77-13.757-.007-7.6 6.144-13.768 13.743-13.783 7.6-.015 13.775 6.13 13.797 13.73A13.77 13.77 0 0 1 93.7 62.79zm25.9-.25h-2.72L105.9 35.98h5.51l6.9 17.39 7-17.39h5.47L119.6 62.54zm27.78-22.17h-9.27v5.75H147v4.38h-8.93v7h9.27v4.38h-14.28v-25.9h14.32v4.39zm16 21.51l-7-10.4h-.66v10.39h-5V35.98h7.49c5.82 0 9.16 2.79 9.16 7.64 0 4-2.09 6.57-5.9 7.37l8.12 10.88h-6.21v.01z" fill="#FFF"/><path d="M1.29 2.29v111.82h38.9C129.07 98.78 177.6 64.54 177.6 64.54V2.29H1.29z" fill="#FFF"/><path d="M15.64 35.98H8.23v25.89h7.37c3.92 0 6.75-.92 9.24-3a13 13 0 0 0 4.7-9.89c0-7.67-5.71-13-13.9-13zm5.9 19.44c-1.59 1.43-3.65 2.06-6.91 2.06h-1.36v-17.1h1.35c3.26 0 5.24.58 6.91 2.09a8.72 8.72 0 0 1 2.8 6.44 8.88 8.88 0 0 1-2.79 6.53v-.02zm10.32-19.43h5.05v25.88h-5.05zm17.39 9.93c-3-1.12-3.92-1.86-3.92-3.26 0-1.63 1.58-2.87 3.76-2.87a5.22 5.22 0 0 1 4.07 2.1l2.64-3.46a11.32 11.32 0 0 0-7.61-2.87c-4.58 0-8.07 3.18-8.07 7.42 0 3.57 1.63 5.39 6.37 7.1A20.14 20.14 0 0 1 50 51.55a3.1 3.1 0 0 1 1.51 2.68 3.69 3.69 0 0 1-3.72 3.66h-.2a6 6 0 0 1-5.51-3.45l-3.26 3.14c2.33 3.41 5.12 4.93 9 4.93 5.18-.01 8.88-3.53 8.88-8.53 0-4.09-1.7-6-7.45-8.06zm9.04 3.06a13.4 13.4 0 0 0 13.34 13.48H72a14 14 0 0 0 6.28-1.48v-6a8.12 8.12 0 0 1-6.1 2.83c-5.08 0-8.69-3.69-8.69-8.93a8.6 8.6 0 0 1 8.29-8.9H72c2.41 0 4.23.86 6.33 2.91v-5.91a12.89 12.89 0 0 0-6.21-1.59A13.61 13.61 0 0 0 58.29 48.8v.18zm60.02 4.4l-6.9-17.39h-5.51l10.98 26.55h2.72l11.18-26.55h-5.47l-7 17.39zm14.75 8.49h14.32v-4.38h-9.27V50.5h8.93v-4.38h-8.93v-5.75h9.27v-4.38h-14.32v25.88z" fill="#000"/><circle fill="#F08200" cx="93.7" cy="49.02" r="13.77"/><path d="M21.54 55.44c-1.59 1.43-3.65 2.06-6.91 2.06h-1.36V40.38h1.35c3.26 0 5.24.58 6.91 2.09a8.72 8.72 0 0 1 2.8 6.44 8.88 8.88 0 0 1-2.79 6.53z" fill="#FFF"/><path d="M161.47 50.98c3.81-.8 5.9-3.4 5.9-7.37 0-4.85-3.34-7.64-9.16-7.64h-7.49v25.9h5V51.48h.66l7 10.4h6.21l-8.12-10.9zm-4.23-3.09h-1.47v-7.82h1.55c3.14 0 4.85 1.32 4.85 3.84 0 2.52-1.7 4-4.93 4v-.02z" fill="#000"/><path d="M157.24 47.9h-1.47v-7.83h1.55c3.14 0 4.85 1.32 4.85 3.84 0 2.52-1.7 4-4.93 4v-.01z" fill="#FFF"/></g></svg>