<svg width="221" height="166" viewBox="0 0 221 166" xmlns="http://www.w3.org/2000/svg"><title>jcb</title><g fill="none" fill-rule="evenodd"><path d="M165.66 100.41h15.93a12.18 12.18 0 0 0 1.9-.18 7.26 7.26 0 0 0 0-14.15 12.41 12.41 0 0 0-1.9-.19h-15.93v14.52zM179.74 0c-15.212.006-27.54 12.338-27.54 27.55V56.1h39c.9 0 2 .07 2.7.1 8.77.45 15.29 5 15.29 12.82 0 6.19-4.43 11.44-12.49 12.64V82c8.89.62 15.73 5.53 15.73 13.27 0 8.36-7.5 13.75-17.48 13.75H152.2v56.07h40.39a27.48 27.48 0 0 0 27.48-27.5V0h-40.33zm7.48 71a6.54 6.54 0 0 0-5.56-6.59 12.31 12.31 0 0 0-1.57-.13h-14.43v13.4h14.44a10.07 10.07 0 0 0 1.57-.14 6.51 6.51 0 0 0 5.55-6.54z" fill="#59A933"/><path d="M27.53 0A27.54 27.54 0 0 0 0 27.55v67.92c7.73 3.74 15.71 6.17 23.79 6.17 9.48 0 14.77-5.81 14.77-13.62V56.1h23.63V88c0 12.48-7.68 22.51-33.93 22.51A118.4 118.4 0 0 1 0 107.11v58h40.36c15.184-.006 27.49-12.316 27.49-27.5V0H27.53z" fill="#0A5299"/><path d="M103.62 0c-15.198.022-27.506 12.352-27.5 27.55v36c7-6 19-9.71 38.58-8.84A124.39 124.39 0 0 1 136.3 58v11.64a53.49 53.49 0 0 0-20.8-6.09c-14.87-1.13-23.81 6.14-23.81 19s8.94 20.11 23.81 19a54.25 54.25 0 0 0 20.8-6.06v11.63a123.89 123.89 0 0 1-21.59 3.28c-19.55.89-31.6-2.85-38.58-8.83v63.51h40.36a27.45 27.45 0 0 0 27.45-27.5V0h-40.32z" fill="#E6182A"/></g></svg>