<svg xmlns="http://www.w3.org/2000/svg" viewBox="0 0 78 85"><defs><style>.cls-1{fill:#eee;}.cls-2{fill:none;}</style></defs><title>logo-gray-icon</title><g id="レイヤー_2" data-name="レイヤー 2"><g id="Contents"><circle class="cls-1" cx="61.19" cy="25.98" r="16.03"/><path class="cls-1" d="M61.18,45.83a19.84,19.84,0,0,1-12.91-34.9,1,1,0,0,0-.19-1.58L39.25,4.91A5.91,5.91,0,0,0,34,4.9L4.13,19.73A5.92,5.92,0,0,0,.85,25L.78,60.27A5.91,5.91,0,0,0,4.1,65.58l12.19,6,17.59,8.59a5.91,5.91,0,0,0,5.16,0L68.88,65.71a5.87,5.87,0,0,0,3.33-5.3l0-16.25a1,1,0,0,0-1.41-.84A19.74,19.74,0,0,1,61.18,45.83ZM29.36,64.63l-3.43-1.7V52.7c0-3-1.84-5.5-4.31-5.77-1-.11-1.9.72-1.93,2.48s0,10.41,0,10.41l-3.15-1.54V48.57c0-4.27-2.76-5.6-4-5.73-.68-.07-2,.35-2,2.54v9.94L7.49,53.78V44.51c0-2.71,1.53-5.43,4.68-5.11A8,8,0,0,1,18.11,44a4,4,0,0,1,3.56-1c1.62.21,7.69,2.48,7.69,10.7Z"/><rect class="cls-2" width="78" height="85"/></g></g></svg>