<svg width="193" height="150" viewBox="0 0 193 150" xmlns="http://www.w3.org/2000/svg"><title>mastercard</title><g fill="none" fill-rule="evenodd"><path d="M35.176 149.526v-9.915c0-3.8-2.314-6.279-6.28-6.279-1.983 0-4.131.661-5.618 2.81-1.157-1.818-2.81-2.81-5.288-2.81-1.653 0-3.305.496-4.627 2.314v-1.983h-3.47v15.863h3.47v-8.758c0-2.809 1.487-4.131 3.8-4.131 2.314 0 3.47 1.487 3.47 4.131v8.758h3.471v-8.758c0-2.809 1.652-4.131 3.8-4.131 2.314 0 3.47 1.487 3.47 4.131v8.758h3.802zm51.391-15.863H80.95v-4.793h-3.47v4.793h-3.14v3.14h3.14v7.27c0 3.636 1.487 5.784 5.453 5.784 1.487 0 3.14-.496 4.296-1.157l-.991-2.974c-.992.66-2.148.826-2.975.826-1.652 0-2.313-.992-2.313-2.644v-7.106h5.618v-3.14zm29.414-.33c-1.983 0-3.305.99-4.131 2.313v-1.983h-3.47v15.863h3.47v-8.923c0-2.644 1.157-4.131 3.305-4.131.661 0 1.487.165 2.148.33l.992-3.305c-.661-.165-1.653-.165-2.314-.165zm-44.451 1.652c-1.653-1.157-3.966-1.653-6.445-1.653-3.966 0-6.61 1.983-6.61 5.123 0 2.644 1.983 4.13 5.453 4.627l1.653.165c1.818.33 2.81.826 2.81 1.652 0 1.157-1.323 1.983-3.636 1.983-2.314 0-4.131-.826-5.288-1.652l-1.653 2.644c1.818 1.322 4.297 1.983 6.775 1.983 4.627 0 7.271-2.148 7.271-5.123 0-2.81-2.148-4.296-5.453-4.792l-1.652-.165c-1.488-.166-2.644-.496-2.644-1.487 0-1.157 1.156-1.818 2.974-1.818 1.983 0 3.966.826 4.958 1.322l1.487-2.81zm92.208-1.653c-1.983 0-3.305.992-4.132 2.314v-1.983h-3.47v15.863h3.47v-8.923c0-2.644 1.157-4.131 3.305-4.131.661 0 1.488.165 2.148.33l.992-3.305c-.661-.165-1.652-.165-2.313-.165zm-44.287 8.262c0 4.793 3.305 8.263 8.428 8.263 2.313 0 3.966-.496 5.618-1.818l-1.652-2.81c-1.322.992-2.644 1.488-4.131 1.488-2.81 0-4.792-1.983-4.792-5.123 0-2.974 1.983-4.957 4.792-5.122 1.487 0 2.809.496 4.13 1.487l1.653-2.81c-1.652-1.321-3.305-1.817-5.618-1.817-5.123 0-8.428 3.47-8.428 8.262zm32.058 0v-7.931h-3.47v1.983c-1.157-1.488-2.81-2.314-4.957-2.314-4.462 0-7.932 3.47-7.932 8.262 0 4.793 3.47 8.263 7.932 8.263 2.313 0 3.966-.826 4.957-2.314v1.983h3.47v-7.932zm-12.724 0c0-2.809 1.818-5.122 4.792-5.122 2.81 0 4.793 2.148 4.793 5.122 0 2.81-1.983 5.123-4.793 5.123-2.974-.165-4.792-2.313-4.792-5.123zm-41.477-8.262c-4.627 0-7.932 3.305-7.932 8.262 0 4.958 3.305 8.263 8.098 8.263 2.313 0 4.626-.661 6.444-2.148l-1.652-2.48c-1.322.992-2.975 1.653-4.627 1.653-2.148 0-4.297-.991-4.792-3.8h11.732v-1.322c.165-5.123-2.809-8.428-7.27-8.428zm0 2.975c2.149 0 3.636 1.322 3.966 3.8h-8.262c.33-2.148 1.818-3.8 4.296-3.8zm86.094 5.287v-14.21h-3.47v8.262c-1.157-1.488-2.81-2.314-4.958-2.314-4.461 0-7.932 3.47-7.932 8.262 0 4.793 3.47 8.263 7.932 8.263 2.314 0 3.966-.826 4.958-2.314v1.983h3.47v-7.932zm-12.724 0c0-2.809 1.818-5.122 4.792-5.122 2.81 0 4.792 2.148 4.792 5.122 0 2.81-1.983 5.123-4.792 5.123-2.974-.165-4.792-2.313-4.792-5.123zm-116.003 0v-7.931h-3.47v1.983c-1.157-1.488-2.81-2.314-4.958-2.314-4.462 0-7.932 3.47-7.932 8.262 0 4.793 3.47 8.263 7.932 8.263 2.314 0 3.966-.826 4.957-2.314v1.983h3.47v-7.932zm-12.89 0c0-2.809 1.818-5.122 4.793-5.122 2.809 0 4.792 2.148 4.792 5.122 0 2.81-1.983 5.123-4.792 5.123-2.975-.165-4.793-2.313-4.793-5.123z" fill="#000"/><path fill="#FF5F00" d="M70.373 13.198h52.053v93.53H70.373z"/><path d="M73.678 59.963c0-19.004 8.923-35.859 22.639-46.765C86.237 5.266 73.513.474 59.632.474 26.748.474.143 27.078.143 59.963c0 32.884 26.605 59.488 59.49 59.488 13.88 0 26.604-4.792 36.684-12.724C82.6 95.987 73.678 78.966 73.678 59.963z" fill="#EB001B"/><path d="M192.656 59.963c0 32.884-26.605 59.488-59.49 59.488-13.88 0-26.604-4.792-36.684-12.724 13.88-10.906 22.639-27.761 22.639-46.764 0-19.004-8.923-35.859-22.639-46.765C106.562 5.266 119.286.474 133.167.474c32.884 0 59.489 26.77 59.489 59.489z" fill="#F79E1B"/></g></svg>