<svg width="248" height="160" viewBox="0 0 248 160" xmlns="http://www.w3.org/2000/svg"><title>saison-card</title><g fill="none" fill-rule="evenodd"><path d="M.048 159.255H3.34v-28.248H.048v28.248zm24.418-28.248v22.833h-.071L12.25 131.007H8.38v28.248h3.185v-22.811h.047l12.348 22.811h3.69v-28.248h-3.184zm5.221 0v3.393h7.223v24.855h2.883V134.4h7.247v-3.393H29.687zm104.775 0v3.393h7.21v24.855h2.895V134.4h7.235v-3.393h-17.34zm-84.469 0v28.248h15.485v-3.393H52.827v-9.432h11.48v-3.37h-11.48v-8.66h12.469v-3.393H49.993zm58.459 0v22.833h-.072l-12.142-22.833h-3.884v28.248h3.183v-22.811h.062l12.335 22.811h3.689v-28.248h-3.171zm15.182 0l-9.14 28.248h3.4l2.531-8.218h9.744l2.4 8.218h3.58l-8.801-28.248h-3.714zm1.712 4.235h.047l3.594 12.415h-7.547l3.906-12.415zm29.36 24.013h3.268v-28.248h-3.268v28.248zm17.595-2.623c-4.775 0-7.658-4.849-7.658-11.502 0-6.64 2.883-11.477 7.658-11.477 4.738 0 7.62 4.836 7.62 11.477 0 6.653-2.882 11.502-7.62 11.502m0-26.335c-8.2 0-10.732 8.759-10.732 14.833 0 6.112 2.532 14.87 10.732 14.87 8.175 0 10.683-8.758 10.683-14.87 0-6.074-2.508-14.833-10.683-14.833m31.289 23.543h-.07l-12.168-22.834h-3.882v28.249h3.183v-22.811h.06l12.36 22.81h3.69v-28.248h-3.172v22.834zm12.82-6.183l3.882-12.416h.072l3.582 12.416h-7.536zm2.194-16.65l-9.127 28.248h3.376l2.543-8.218h9.744l2.41 8.218h3.57l-8.801-28.248h-3.715zm-130.277 7.001c0-7.568-9.31-6.882-9.31-6.882h-8.875v28.25h3.173V134.35h5.366s6.33-.565 6.33 4.849c0 5.426-6.307 6.172-8.743 6.172l8.514 13.763h3.798l-6.97-11.189c3.002-.913 6.717-3.345 6.717-9.937m148.293 17.854v-24.856h-2.943v28.249h14.06v-3.393h-11.118z" fill="#003E8C"/><path d="M0 63.535h246.736V.527H0v63.008z" fill="#FEFEFE"/><path d="M0 122.44h246.736V63.535H0v58.905z" fill="#149243"/><path d="M243.059 118.757H3.702V63.535H243.06v55.222zM34.703 36.393c-3.268-2.9-7.68-2.996-11.419-4.572-3.75-1.528-6.8-5.246-6.8-9.385-.339-4.09 2.097-8.012 5.763-10.106 3.715-2.2 9.188-1.888 12.59.722 1.844 1.275 3.34 3.057 4.051 5.053l-3.063 1.204c-1.024-1.829-2.64-3.538-4.606-4.415-2.798-1.216-6.464-.567-8.73 1.527-2.111 2.022-3.111 4.812-2.34 7.64 2.966 7.472 12.228 4.692 17.099 9.95 2.991 3.067 4.026 8.156 2.22 12.127-2.268 4.837-7.332 7.34-12.108 7.436-4.691-.17-9.212-2.407-11.816-6.594-.506-1.023-1.208-1.9-1.351-3.031l2.917-1.192 1.015 1.709c1.856 3.441 5.593 5.654 9.331 5.594 3.69-.144 7.55-2.286 8.972-5.847.988-2.67.121-5.823-1.725-7.82zM65.85 10.815l17.568 41.604h-3.822L74.11 39.136H57.578l-5.486 13.283h-3.8L65.85 10.815zm27.71.53h3.919v40.892h-3.92V11.344zm38.9 25.048c-3.28-2.9-7.682-2.996-11.431-4.572-3.761-1.528-6.8-5.246-6.8-9.385-.327-4.09 2.085-8.012 5.763-10.106 3.713-2.2 9.188-1.888 12.577.722 1.868 1.275 3.34 3.057 4.062 5.053l-3.086 1.204c-1.002-1.829-2.604-3.538-4.558-4.415-2.821-1.216-6.5-.567-8.741 1.527-2.136 2.022-3.137 4.812-2.34 7.64 2.942 7.472 12.216 4.692 17.098 9.95 2.978 3.067 4.016 8.156 2.195 12.127-2.243 4.837-7.332 7.34-12.094 7.436-4.68-.17-9.213-2.407-11.842-6.594-.483-1.023-1.205-1.9-1.327-3.031l2.895-1.192 1.025 1.709c1.856 3.441 5.606 5.654 9.345 5.594 3.69-.144 7.549-2.286 8.959-5.847 1-2.67.156-5.823-1.7-7.82zm16.47-7.035c1.104-9.574 8.827-17.27 18.42-18.385 12.702-1.477 23.87 8.435 23.87 20.86 0 11.61-9.73 21.356-21.356 21.356-12.442 0-22.396-11.165-20.934-23.83zm54.336-18.928l25.322 31.93V10.647h3.401v41.735l-25.31-31.967v30.728h-3.413V10.43zM0 122.44h246.736V.527H0V122.44z" fill="#003E8C"/><path d="M169.864 37.019c2.726 0 5.161-1.83 5.161-5.187 0-2.706-2.435-4.872-5.161-4.872-2.7 0-4.908 2.166-4.908 4.872 0 2.707 2.208 5.187 4.908 5.187" fill="#003E8C"/><path d="M163.871 26.19c1.605-1.587 3.727-2.622 5.993-2.622 2.292 0 4.583.77 6.223 2.43 1.616 1.588 2.472 3.67 2.472 5.835 0 4.993-3.738 8.506-8.695 8.506-2.17 0-4.195-.842-5.811-2.43-1.664-1.66-2.413-3.753-2.413-6.076 0-2.237.64-4.054 2.231-5.643m5.993 23.533c9.646 0 17.847-8.253 17.847-17.89 0-9.613-8.2-17.457-17.847-17.457-9.67 0-17.508 7.844-17.508 17.457 0 9.637 7.838 17.89 17.508 17.89M65.85 19.164l-6.8 16.459h13.59l-6.79-16.459z" fill="#003E8C"/><path d="M134.558 74.484h8.32c4.812 0 8.681 3.465 8.681 8.228 0 4.765-3.869 8.65-8.68 8.65h-8.32V74.484zm.024 38.042V95.044h6.271l10.586 17.482h3.871l-9.382-17.879c5.343-1.334 9.323-4.789 9.323-11.935 0-3.175-.893-6.46-3.1-8.662-2.328-2.31-5.812-3.26-9.273-3.26h-12.01l.024 41.736h3.69zm-68.635.613c4.413 0 8.501-1.311 11.938-3.548l-.7-4.043c-3.099 2.455-6.982 3.923-11.238 3.923-10.009 0-18.136-8.11-18.136-18.11 0-9.996 8.127-18.105 18.136-18.105 4.63 0 8.501 1.384 11.456 3.682l.24-4.283c-3.352-2.022-7.32-3.056-11.696-3.056-5.812 0-11.299 2.237-15.435 6.352-4.123 4.126-6.38 9.59-6.38 15.41 0 5.812 2.257 11.287 6.38 15.39a21.717 21.717 0 0 0 15.435 6.388M174.05 74.796h7.74c9.177 0 16.58 7.628 16.58 17.036 0 9.397-7.403 17.025-16.58 17.025h-7.74v-34.06zm7.74 37.754c11.19 0 20.752-9.78 20.752-21.188 0-5.617-2.629-10.418-6.56-14.34-3.833-3.815-8.861-5.896-14.192-5.896H169.6v41.424h12.19zM103.4 78.477l6.85 16.627H96.501l6.898-16.627zm-8.345 20.214h16.665l5.547 13.39h3.859L103.4 70.044l-17.75 42.037h3.858l5.547-13.39z" fill="#FEFEFE"/></g></svg>