<svg width="243" height="75" viewBox="0 0 243 75" xmlns="http://www.w3.org/2000/svg"><title>visa</title><g fill="none" fill-rule="evenodd"><path d="M120.666 56.199l-2.989 14.875S132.171 75 139.343 75c9.613 0 27.643-2.416 32.574-16.911 4.93-14.496-4.035-21.592-12.552-26.424-8.516-4.832-15.09-7.399-12.7-12.533 2.39-5.133 19.275-5.738 27.045-.604L176.4 3.58S166.844-.87 152.94.71c-14.942 1.697-25.002 9.074-26.447 17.667-1.382 8.223-.299 14.949 9.414 20.838 9.712 5.888 17.482 8.153 17.033 14.042-.448 5.888-10.459 7.7-18.826 6.342-8.368-1.36-13.448-3.4-13.448-3.4m82.275-7.069l10.501-27.908 5.788 27.907h-16.289zm21.612 25.665h17.74l-15.43-73.463h-16.247s-3.984-.256-6.574 2.613c-2.59 2.869-5.38 9.939-5.38 9.939L173.56 74.795h19.724l4.144-11.014h24.84l2.285 11.014zM97.954 1.332L85.702 74.795h19.723l12.252-73.463H97.954zm-28.838 0L49.935 50.966l-2.87-11.063c-.075-.163-7.99-17.358-26.018-29.239l16.84 64.131h21.068L89.437 1.332H69.116z" fill="#015396"/><path d="M0 1.486h29.137c2.316 0 7.92.922 10.011 4.303 2.092 3.381 7.92 34.119 7.92 34.119S33.17 9.478 0 1.486" fill="#EC9F24"/></g></svg>